{"glyphs":{"0":{"ha":867,"x_min":0,"x_max":0,"o":"m 179 850 b 92 486 121 763 92 640 b 179 121 92 332 121 210 b 433 -11 238 33 322 -11 b 688 121 544 -11 629 33 b 775 486 746 210 775 332 b 688 850 775 640 746 763 b 433 983 629 939 544 983 b 179 850 322 983 238 939 z m 597 771 b 653 486 635 703 653 608 b 597 201 653 364 635 269 b 433 100 560 133 506 100 b 269 201 361 100 307 133 b 214 486 232 269 214 364 b 269 771 214 608 232 703 b 433 872 307 839 361 872 b 597 771 506 872 560 839 z "},"1":{"ha":522,"x_min":0,"x_max":0,"o":"m 103 821 l 103 693 l 282 797 l 282 0 l 396 0 l 396 972 l 353 972 z "},"2":{"ha":792,"x_min":0,"x_max":0,"o":"m 688 0 l 688 111 l 289 111 l 592 503 b 669 714 643 571 669 640 b 608 899 669 790 649 853 b 397 983 558 956 488 983 b 206 910 322 983 258 958 b 121 728 154 861 125 800 l 238 706 b 397 872 247 806 307 872 b 514 825 449 872 488 857 b 550 714 538 796 550 760 b 471 529 550 653 532 607 l 100 54 l 100 0 z "},"3":{"ha":803,"x_min":0,"x_max":0,"o":"m 85 267 b 185 65 93 183 126 117 b 394 -11 243 14 313 -11 b 621 76 488 -11 563 18 b 708 306 679 136 708 213 b 635 521 708 394 683 467 b 450 604 586 576 525 604 b 411 600 432 604 419 603 l 658 935 l 658 972 l 131 972 l 131 861 l 482 861 l 260 558 l 308 493 b 394 511 333 506 363 511 b 589 306 511 511 589 435 b 394 100 589 176 511 100 b 201 282 283 100 219 161 z "},"4":{"ha":828,"x_min":0,"x_max":0,"o":"m 631 0 l 631 207 l 751 207 l 751 318 l 631 318 l 631 972 l 500 972 l 89 256 l 89 207 l 511 207 l 511 0 z m 511 789 l 511 318 l 247 318 z "},"5":{"ha":804,"x_min":0,"x_max":0,"o":"m 108 254 b 403 -11 126 82 242 -11 b 625 79 496 -11 569 19 b 708 317 681 140 708 219 b 629 553 708 414 682 493 b 411 644 576 614 504 644 b 251 579 346 644 293 622 l 288 861 l 650 861 l 650 972 l 186 972 l 133 442 l 207 425 b 403 533 261 497 326 533 b 589 317 519 533 589 449 b 403 100 589 185 519 100 b 226 276 304 100 239 161 z "},"6":{"ha":801,"x_min":0,"x_max":0,"o":"m 413 622 b 365 613 394 622 379 619 l 576 983 l 443 983 l 156 485 b 106 306 122 428 106 368 b 192 79 106 215 135 140 b 413 -11 250 19 324 -11 b 632 79 501 -11 575 19 b 719 306 690 140 719 215 b 632 531 719 396 690 471 b 413 622 575 592 501 622 z m 228 306 b 413 511 228 429 303 511 b 597 306 522 511 597 429 b 413 100 597 188 519 100 b 228 306 306 100 228 188 z "},"7":{"ha":669,"x_min":0,"x_max":0,"o":"m 631 921 l 631 972 l 76 972 l 76 861 l 488 861 l 131 0 l 253 0 z "},"8":{"ha":811,"x_min":0,"x_max":0,"o":"m 672 724 b 597 908 672 797 647 858 b 406 983 547 958 483 983 b 214 908 328 983 264 958 b 139 724 164 858 139 797 b 249 524 139 640 183 558 b 104 279 160 483 104 396 b 192 67 104 190 133 119 b 406 -11 250 15 321 -11 b 619 67 490 -11 561 15 b 707 279 678 119 707 190 b 563 524 707 396 651 483 b 672 724 628 558 672 640 z m 535 410 b 585 279 568 378 585 333 b 535 149 585 225 568 181 b 406 100 501 117 458 100 b 276 149 353 100 310 117 b 226 279 243 181 226 225 b 276 410 226 333 243 378 b 406 458 310 442 353 458 b 535 410 458 458 501 442 z m 514 835 b 556 724 542 806 556 769 b 514 613 556 678 542 642 b 406 569 488 583 451 569 b 296 613 360 569 324 583 b 256 724 269 642 256 678 b 296 835 256 769 269 806 b 406 878 324 864 360 878 b 514 835 451 878 488 864 z "},"9":{"ha":801,"x_min":0,"x_max":0,"o":"m 413 350 b 460 360 431 350 446 353 l 249 -11 l 382 -11 l 669 488 b 719 667 703 544 719 604 b 632 892 719 757 690 832 b 413 983 575 953 501 983 b 192 892 324 983 250 953 b 106 667 135 832 106 757 b 192 440 106 576 135 501 b 413 350 250 381 324 350 z m 597 667 b 413 461 597 543 522 461 b 228 667 303 461 228 543 b 413 872 228 785 306 872 b 597 667 519 872 597 785 z "},"\u0000":{"ha":0,"x_min":0,"x_max":0,"o":""}," ":{"ha":372,"x_min":0,"x_max":0,"o":""},"!":{"ha":479,"x_min":0,"x_max":0,"o":"m 197 278 l 289 278 l 322 972 l 164 972 z m 146 90 b 243 -4 146 36 188 -4 b 340 90 299 -4 340 36 b 243 189 340 146 299 189 b 146 90 188 189 146 146 z "},"\"":{"ha":613,"x_min":0,"x_max":0,"o":"m 243 661 l 278 983 l 122 983 l 157 661 z m 456 661 l 490 983 l 335 983 l 369 661 z "},"#":{"ha":1003,"x_min":0,"x_max":0,"o":"m 322 589 l 281 383 l 100 383 l 100 289 l 261 289 l 203 0 l 304 0 l 363 289 l 560 289 l 500 0 l 601 0 l 661 289 l 847 289 l 847 383 l 681 383 l 722 589 l 903 589 l 903 683 l 742 683 l 800 972 l 699 972 l 640 683 l 443 683 l 503 972 l 401 972 l 342 683 l 156 683 l 156 589 z m 621 589 l 579 383 l 382 383 l 424 589 z "},"$":{"ha":726,"x_min":0,"x_max":0,"o":"m 611 828 b 425 978 568 913 506 963 l 425 1097 l 314 1097 l 314 979 b 119 736 203 957 119 860 b 192 565 119 664 142 610 b 356 465 242 522 279 500 b 539 276 472 410 539 361 b 501 161 539 231 526 192 b 369 106 469 124 426 106 b 161 315 254 106 199 183 l 56 251 b 314 -7 83 117 182 15 l 314 -125 l 425 -125 l 425 -6 b 586 81 489 4 543 33 b 661 279 636 135 661 201 b 557 482 657 376 622 433 b 429 558 511 517 485 531 l 354 597 b 299 633 339 606 321 618 b 242 746 256 667 242 700 b 358 868 242 811 292 868 b 513 764 424 868 468 843 z "},"%":{"ha":1169,"x_min":0,"x_max":0,"o":"m 144 603 b 303 539 188 560 240 539 b 461 603 365 539 418 560 b 525 761 504 646 525 699 b 461 918 525 824 504 875 b 303 983 418 961 365 983 b 144 918 240 983 188 961 b 81 761 101 875 81 824 b 144 603 81 699 101 646 z m 214 850 b 303 886 236 874 265 886 b 390 850 340 886 369 874 b 424 761 413 826 424 797 b 390 671 424 725 413 694 b 303 636 369 647 340 636 b 214 671 265 636 236 647 b 182 761 193 694 182 725 b 214 850 182 797 193 826 z m 708 53 b 867 -11 751 10 804 -11 b 1025 53 929 -11 982 10 b 1089 211 1068 96 1089 149 b 1025 368 1089 274 1068 325 b 867 433 982 411 929 433 b 708 368 804 433 751 411 b 644 211 665 325 644 274 b 708 53 644 149 665 96 z m 778 300 b 867 336 800 324 829 336 b 954 300 904 336 933 324 b 988 211 976 276 988 247 b 954 121 988 175 976 144 b 867 86 933 97 904 86 b 778 121 829 86 800 97 b 746 211 757 144 746 175 b 778 300 746 247 757 276 z m 175 15 l 244 -40 l 992 958 l 922 1013 z "},"&":{"ha":940,"x_min":0,"x_max":0,"o":"m 397 -11 b 657 103 504 -11 590 26 l 739 0 l 879 0 l 724 197 b 796 368 749 244 772 301 l 718 453 b 653 288 693 381 671 325 l 450 544 b 604 671 526 585 578 626 b 639 789 628 711 639 751 b 422 983 639 899 557 983 b 268 925 361 983 310 964 b 207 776 228 886 207 836 b 292 574 207 718 235 650 b 158 456 240 547 196 507 b 104 278 122 404 104 346 b 397 -11 104 99 219 -11 z m 397 97 b 218 275 297 97 218 164 b 351 494 218 371 263 444 l 590 188 b 397 97 542 128 476 97 z m 318 771 b 422 883 318 836 360 883 b 529 782 485 883 529 839 b 386 619 529 711 479 665 b 318 771 340 679 318 729 z "},"'":{"ha":400,"x_min":0,"x_max":0,"o":"m 243 661 l 278 983 l 122 983 l 157 661 z "},"(":{"ha":406,"x_min":0,"x_max":0,"o":"m 247 1042 b 99 486 149 886 99 701 b 247 -69 99 271 149 86 l 364 -69 b 218 486 267 85 218 271 b 364 1042 218 701 267 888 z "},")":{"ha":406,"x_min":0,"x_max":0,"o":"m 42 1042 b 188 486 139 888 188 701 b 42 -69 188 271 139 85 l 158 -69 b 307 486 257 86 307 271 b 158 1042 307 701 257 886 z "},"*":{"ha":678,"x_min":0,"x_max":0,"o":"m 292 983 l 292 792 l 110 851 l 81 761 l 261 701 l 150 547 l 226 493 l 339 647 l 451 493 l 528 547 l 417 701 l 597 761 l 568 851 l 386 792 l 386 983 z "},"+":{"ha":789,"x_min":0,"x_max":0,"o":"m 344 494 l 90 494 l 90 392 l 344 392 l 344 138 l 447 138 l 447 392 l 701 392 l 701 494 l 447 494 l 447 749 l 344 749 z "},",":{"ha":442,"x_min":0,"x_max":0,"o":"m 183 -149 l 344 153 l 186 153 l 94 -149 z "},"-":{"ha":668,"x_min":0,"x_max":0,"o":"m 569 389 l 569 492 l 99 492 l 99 389 z "},".":{"ha":425,"x_min":0,"x_max":0,"o":"m 125 82 b 213 -6 125 32 163 -6 b 300 82 261 -6 300 32 b 213 169 300 131 261 169 b 125 82 163 169 125 131 z "},"/":{"ha":754,"x_min":0,"x_max":0,"o":"m 26 -69 l 143 -69 l 749 1042 l 632 1042 z "},":":{"ha":425,"x_min":0,"x_max":0,"o":"m 125 82 b 213 -6 125 32 163 -6 b 300 82 261 -6 300 32 b 213 169 300 131 261 169 b 125 82 163 169 125 131 z m 125 560 b 213 472 125 510 163 472 b 300 560 261 472 300 510 b 213 647 300 608 261 647 b 125 560 163 647 125 608 z "},";":{"ha":425,"x_min":0,"x_max":0,"o":"m 122 560 b 210 472 122 510 160 472 b 297 560 258 472 297 510 b 210 647 297 608 258 647 b 122 560 160 647 122 608 z m 139 -149 l 300 153 l 142 153 l 50 -149 z "},"<":{"ha":632,"x_min":0,"x_max":0,"o":"m 554 113 l 554 232 l 183 431 l 554 629 l 554 749 l 69 492 l 69 369 z "},"=":{"ha":832,"x_min":0,"x_max":0,"o":"m 693 494 l 693 597 l 139 597 l 139 494 z m 693 264 l 693 367 l 139 367 l 139 264 z "},">":{"ha":632,"x_min":0,"x_max":0,"o":"m 78 749 l 78 629 l 449 431 l 78 232 l 78 113 l 563 369 l 563 492 z "},"?":{"ha":622,"x_min":0,"x_max":0,"o":"m 226 88 b 318 -4 226 36 267 -4 b 413 88 372 -4 413 36 b 318 182 413 142 372 182 b 226 88 267 182 226 142 z m 414 458 b 314 376 390 404 357 376 b 242 447 269 376 242 403 b 310 543 242 486 264 518 l 450 611 b 556 776 521 646 556 700 b 493 922 556 835 535 883 b 321 983 450 963 392 983 b 67 775 183 983 94 903 l 175 757 b 321 886 197 835 249 886 b 411 856 358 886 388 876 b 442 783 432 838 442 814 b 381 685 442 740 421 707 b 253 628 353 669 293 650 b 135 453 174 588 135 529 b 318 279 135 346 207 279 b 504 426 408 279 471 328 z "},"@":{"ha":1278,"x_min":0,"x_max":0,"o":"m 804 638 b 650 717 774 690 722 717 b 438 626 563 717 492 686 b 358 410 385 567 358 494 b 597 150 358 258 446 150 b 779 246 676 150 738 182 b 935 150 806 192 863 150 b 1178 489 1079 150 1178 265 b 1040 864 1178 651 1132 776 b 668 997 950 953 825 997 b 275 839 515 997 385 944 b 113 418 167 735 113 594 b 267 19 113 253 164 121 b 660 -131 371 -81 501 -131 b 847 -111 735 -131 797 -124 b 1038 -39 897 -99 961 -74 l 999 54 b 825 -14 933 19 875 -3 b 660 -31 776 -25 721 -31 b 357 88 543 -31 442 8 b 229 414 272 167 229 276 b 661 897 229 735 440 897 b 1061 489 928 897 1061 761 b 940 253 1061 332 1021 253 b 875 325 897 253 875 276 b 878 357 875 328 876 339 l 910 707 l 818 707 z m 640 614 b 776 461 731 614 776 563 b 607 253 776 344 713 253 b 472 406 519 253 472 310 b 640 614 472 529 533 614 z "},"A":{"ha":822,"x_min":0,"x_max":0,"o":"m 17 0 l 139 0 l 225 260 l 597 260 l 683 0 l 806 0 l 469 972 l 353 972 z m 558 376 l 264 376 l 411 814 z "},"B":{"ha":858,"x_min":0,"x_max":0,"o":"m 135 0 l 481 0 b 783 289 669 0 783 110 b 626 532 783 406 722 493 b 736 722 692 567 736 639 b 463 972 736 879 633 972 l 135 972 z m 463 460 b 657 289 592 460 657 403 b 463 117 657 174 592 117 l 257 117 l 257 460 z m 456 856 b 610 715 550 856 610 806 b 456 576 610 625 550 576 l 257 576 l 257 856 z "},"C":{"ha":956,"x_min":0,"x_max":0,"o":"m 778 318 b 515 106 732 176 644 106 b 289 204 422 106 347 139 b 203 486 232 269 203 364 b 289 768 203 608 232 703 b 515 867 347 833 422 867 b 778 654 644 867 732 796 l 896 689 b 763 901 874 776 829 847 b 515 983 696 956 614 983 b 204 853 394 983 290 940 b 76 486 119 765 76 643 b 204 119 76 329 119 207 b 515 -11 290 32 394 -11 b 763 69 614 -11 696 15 b 896 283 829 124 874 196 z "},"D":{"ha":925,"x_min":0,"x_max":0,"o":"m 135 0 l 401 0 b 719 129 528 0 633 43 b 849 486 806 217 849 335 b 719 842 849 638 806 756 b 401 972 633 929 528 972 l 135 972 z m 381 856 b 718 486 560 856 718 758 b 381 117 718 214 560 117 l 257 117 l 257 856 z "},"E":{"ha":786,"x_min":0,"x_max":0,"o":"m 135 0 l 707 0 l 707 117 l 257 117 l 257 460 l 610 460 l 610 576 l 257 576 l 257 856 l 693 856 l 693 972 l 135 972 z "},"F":{"ha":747,"x_min":0,"x_max":0,"o":"m 135 0 l 257 0 l 257 449 l 617 449 l 617 565 l 257 565 l 257 856 l 700 856 l 700 972 l 135 972 z "},"G":{"ha":992,"x_min":0,"x_max":0,"o":"m 783 374 b 515 106 772 213 678 106 b 289 204 422 106 347 139 b 203 486 232 269 203 364 b 289 768 203 608 232 703 b 515 867 347 833 422 867 b 779 654 644 867 733 796 l 897 689 b 515 983 853 871 715 983 b 204 854 393 983 289 940 b 76 486 119 768 76 646 b 203 118 76 326 118 204 b 510 -11 288 32 390 -11 b 783 133 636 -11 735 49 l 796 0 l 900 0 l 900 490 l 574 490 l 574 374 z "},"H":{"ha":958,"x_min":0,"x_max":0,"o":"m 701 575 l 257 575 l 257 972 l 135 972 l 135 0 l 257 0 l 257 458 l 701 458 l 701 0 l 824 0 l 824 972 l 701 972 z "},"I":{"ha":392,"x_min":0,"x_max":0,"o":"m 135 0 l 257 0 l 257 972 l 135 972 z "},"J":{"ha":707,"x_min":0,"x_max":0,"o":"m 471 304 b 310 106 471 172 417 106 b 139 269 219 106 163 160 l 15 243 b 310 -11 42 97 142 -11 b 513 71 392 -11 460 17 b 593 299 567 125 593 201 l 593 972 l 471 972 z "},"K":{"ha":829,"x_min":0,"x_max":0,"o":"m 381 536 l 775 972 l 619 972 l 257 582 l 257 972 l 135 972 l 135 0 l 257 0 l 257 490 l 653 0 l 808 0 z "},"L":{"ha":724,"x_min":0,"x_max":0,"o":"m 135 0 l 699 0 l 699 117 l 257 117 l 257 972 l 135 972 z "},"M":{"ha":1089,"x_min":0,"x_max":0,"o":"m 135 0 l 257 0 l 257 708 l 501 89 l 588 89 l 832 708 l 832 0 l 954 0 l 954 972 l 804 972 l 544 288 l 285 972 l 135 972 z "},"N":{"ha":974,"x_min":0,"x_max":0,"o":"m 717 213 l 278 972 l 135 972 l 135 0 l 257 0 l 257 757 l 696 0 l 839 0 l 839 972 l 717 972 z "},"O":{"ha":1025,"x_min":0,"x_max":0,"o":"m 203 850 b 76 486 118 763 76 640 b 203 121 76 332 118 210 b 513 -11 288 33 390 -11 b 822 121 635 -11 738 33 b 949 486 907 210 949 332 b 822 850 949 640 907 763 b 513 983 738 939 635 983 b 203 850 390 983 288 939 z m 735 768 b 822 486 793 703 822 608 b 735 204 822 364 793 269 b 513 106 678 139 603 106 b 289 204 422 106 347 139 b 203 486 232 269 203 364 b 289 768 203 608 232 703 b 513 867 347 833 422 867 b 735 768 603 867 678 833 z "},"P":{"ha":811,"x_min":0,"x_max":0,"o":"m 474 417 b 763 694 656 417 763 524 b 474 972 763 865 656 972 l 135 972 l 135 0 l 257 0 l 257 417 z m 257 533 l 257 856 l 481 856 b 636 694 581 856 636 799 b 481 533 636 590 581 533 z "},"Q":{"ha":1025,"x_min":0,"x_max":0,"o":"m 949 486 b 822 850 949 640 907 763 b 513 983 738 939 635 983 b 203 850 390 983 288 939 b 76 486 118 763 76 640 b 203 121 76 332 118 210 b 513 -11 288 33 390 -11 b 776 79 613 -11 700 19 l 867 -11 l 956 78 l 861 171 b 949 486 919 258 949 363 z m 692 163 b 513 106 643 125 583 106 b 289 204 422 106 347 139 b 203 486 232 269 203 364 b 289 768 203 608 232 703 b 513 867 347 833 422 867 b 735 768 603 867 678 833 b 822 486 793 703 822 608 b 772 260 822 396 806 321 l 667 367 l 578 278 z "},"R":{"ha":890,"x_min":0,"x_max":0,"o":"m 832 0 l 542 467 b 744 715 669 493 744 582 b 458 972 744 876 632 972 l 135 972 l 135 0 l 257 0 l 257 458 l 403 458 l 688 0 z m 461 856 b 618 715 565 856 618 808 b 461 575 618 622 565 575 l 257 575 l 257 856 z "},"S":{"ha":726,"x_min":0,"x_max":0,"o":"m 611 828 b 358 983 560 928 488 983 b 190 913 293 983 238 960 b 119 736 143 865 119 807 b 192 565 119 664 142 610 b 356 465 242 522 279 500 b 539 276 472 410 539 361 b 501 161 539 231 526 192 b 369 106 469 124 426 106 b 161 315 254 106 199 183 l 56 251 b 165 63 72 175 108 111 b 369 -11 222 14 290 -11 b 586 81 458 -11 531 19 b 661 279 636 135 661 201 b 557 482 657 376 622 433 b 429 558 511 517 485 531 l 354 597 b 299 633 339 606 321 618 b 242 746 256 667 242 700 b 358 867 242 811 292 867 b 513 764 424 867 468 843 z "},"T":{"ha":725,"x_min":0,"x_max":0,"o":"m 301 856 l 301 0 l 424 0 l 424 856 l 704 856 l 704 972 l 21 972 l 21 856 z "},"U":{"ha":908,"x_min":0,"x_max":0,"o":"m 114 331 b 210 79 114 224 146 139 b 454 -11 275 19 356 -11 b 697 79 553 -11 633 19 b 794 331 763 139 794 224 l 794 972 l 672 972 l 672 322 b 454 106 672 194 592 106 b 236 322 317 106 236 194 l 236 972 l 114 972 z "},"V":{"ha":814,"x_min":0,"x_max":0,"o":"m 407 174 l 140 972 l 11 972 l 346 0 l 468 0 l 803 972 l 674 972 z "},"W":{"ha":1256,"x_min":0,"x_max":0,"o":"m 890 181 l 683 869 l 572 869 l 365 181 l 168 972 l 39 972 l 299 0 l 426 0 l 628 668 l 829 0 l 957 0 l 1217 972 l 1088 972 z "},"X":{"ha":800,"x_min":0,"x_max":0,"o":"m 331 522 l 24 0 l 164 0 l 400 403 l 636 0 l 776 0 l 469 522 l 733 972 l 593 972 l 400 642 l 207 972 l 67 972 z "},"Y":{"ha":703,"x_min":0,"x_max":0,"o":"m 290 0 l 413 0 l 413 419 l 697 972 l 563 972 l 351 542 l 140 972 l 6 972 l 290 419 z "},"Z":{"ha":771,"x_min":0,"x_max":0,"o":"m 515 856 l 63 58 l 63 0 l 703 0 l 703 117 l 236 117 l 689 914 l 689 972 l 79 972 l 79 856 z "},"[":{"ha":449,"x_min":0,"x_max":0,"o":"m 396 -69 l 396 36 l 246 36 l 246 936 l 396 936 l 396 1042 l 135 1042 l 135 -69 z "},"\\":{"ha":754,"x_min":0,"x_max":0,"o":"m 611 -69 l 728 -69 l 122 1042 l 6 1042 z "},"]":{"ha":449,"x_min":0,"x_max":0,"o":"m 53 936 l 203 936 l 203 36 l 53 36 l 53 -69 l 314 -69 l 314 1042 l 53 1042 z "},"^":{"ha":772,"x_min":0,"x_max":0,"o":"m 81 585 l 196 585 l 386 867 l 576 585 l 692 585 l 433 972 l 339 972 z "},"_":{"ha":638,"x_min":0,"x_max":0,"o":"m 596 -103 l 596 0 l 42 0 l 42 -103 z "},"`":{"ha":317,"x_min":0,"x_max":0,"o":"m 26 978 l 194 778 l 289 778 l 194 978 z "},"a":{"ha":719,"x_min":0,"x_max":0,"o":"m 197 201 b 383 325 197 281 265 325 l 508 325 l 508 308 b 450 146 508 235 489 181 b 313 94 411 111 365 94 b 197 201 239 94 197 135 z m 625 447 b 356 711 625 625 518 711 b 107 519 224 711 125 638 l 210 496 b 356 606 225 564 282 606 b 508 461 457 606 508 557 l 508 431 l 394 431 b 78 201 199 431 78 350 b 294 -11 78 58 168 -11 b 514 99 390 -11 463 25 l 533 0 l 625 0 z "},"b":{"ha":835,"x_min":0,"x_max":0,"o":"m 449 -11 b 760 350 649 -11 760 133 b 449 711 760 567 649 711 b 325 681 407 711 365 701 b 244 617 285 660 257 639 l 244 983 l 128 983 l 128 0 l 244 0 l 244 86 b 449 -11 279 32 365 -11 z m 438 606 b 640 350 560 606 640 501 b 438 94 640 199 560 94 b 235 350 311 94 235 199 b 438 606 235 501 311 606 z "},"c":{"ha":747,"x_min":0,"x_max":0,"o":"m 585 224 b 393 94 547 138 483 94 b 194 350 264 94 194 200 b 393 606 194 500 264 606 b 585 476 483 606 547 563 l 686 518 b 393 711 629 647 532 711 b 157 606 292 711 213 676 b 75 350 103 536 75 451 b 157 93 75 249 103 164 b 393 -11 213 24 292 -11 b 686 182 532 -11 629 53 z "},"d":{"ha":835,"x_min":0,"x_max":0,"o":"m 386 711 b 75 350 186 711 75 567 b 386 -11 75 133 186 -11 b 590 86 469 -11 556 32 l 590 0 l 707 0 l 707 983 l 590 983 l 590 617 b 510 681 578 639 550 660 b 386 711 469 701 428 711 z m 397 94 b 194 350 275 94 194 199 b 397 606 194 501 275 606 b 600 350 524 606 600 501 b 397 94 600 199 524 94 z "},"e":{"ha":778,"x_min":0,"x_max":0,"o":"m 708 379 b 624 614 708 472 681 550 b 392 711 568 679 490 711 b 157 606 290 711 213 676 b 75 350 103 536 75 451 b 157 93 75 249 103 164 b 392 -11 213 24 290 -11 b 689 183 536 -11 624 46 l 586 228 b 392 94 546 138 490 94 b 194 325 271 94 201 188 l 708 325 z m 392 606 b 586 431 499 606 564 536 l 201 431 b 392 606 224 538 288 606 z "},"f":{"ha":506,"x_min":0,"x_max":0,"o":"m 165 594 l 165 0 l 282 0 l 282 594 l 443 594 l 443 700 l 282 700 l 282 746 b 390 878 282 836 314 878 b 468 858 417 878 442 871 l 492 961 b 392 983 465 976 432 983 b 165 746 247 983 165 903 l 165 700 l 65 700 l 65 594 z "},"g":{"ha":704,"x_min":0,"x_max":0,"o":"m 125 475 b 176 322 125 415 142 364 b 92 193 119 293 92 250 b 139 82 92 146 107 108 b 74 -64 96 44 74 -4 b 371 -294 74 -208 192 -294 b 667 -53 543 -294 667 -215 b 447 140 667 71 581 140 l 282 140 b 203 199 229 140 203 160 b 249 267 203 229 218 251 b 369 242 283 250 324 242 b 544 304 440 242 499 263 b 614 475 590 347 614 404 b 579 601 614 524 603 565 l 674 654 l 621 750 l 496 679 b 369 710 457 700 415 710 b 194 644 299 710 240 688 b 125 475 149 601 125 546 z m 429 40 b 547 -64 508 40 547 6 b 371 -192 547 -140 488 -192 b 190 -60 254 -192 190 -139 b 236 43 190 -15 206 19 b 288 40 257 42 274 40 z m 276 574 b 463 574 326 622 413 622 b 500 475 488 550 500 517 b 463 376 500 433 488 400 b 276 376 413 331 326 331 b 239 475 251 400 239 433 b 276 574 239 517 251 550 z "},"h":{"ha":813,"x_min":0,"x_max":0,"o":"m 693 486 b 488 711 693 632 617 711 b 244 569 381 711 289 657 l 244 983 l 128 983 l 128 0 l 244 0 l 244 297 b 308 519 244 389 265 463 b 456 606 351 576 401 606 b 576 463 536 606 576 558 l 576 0 l 693 0 z "},"i":{"ha":375,"x_min":0,"x_max":0,"o":"m 129 0 l 246 0 l 246 700 l 129 700 z m 100 894 b 188 808 100 846 138 808 b 275 894 238 808 275 846 b 188 983 275 944 238 983 b 100 894 138 983 100 944 z "},"j":{"ha":375,"x_min":0,"x_max":0,"o":"m 35 -294 b 249 -36 172 -268 249 -179 l 249 700 l 132 700 l 132 -25 b 4 -183 132 -124 93 -160 z m 100 894 b 188 808 100 846 138 808 b 275 894 238 808 275 846 b 188 983 275 944 238 983 b 100 894 138 983 100 944 z "},"k":{"ha":710,"x_min":0,"x_max":0,"o":"m 128 0 l 244 0 l 244 351 l 540 0 l 689 0 l 369 379 l 667 700 l 517 700 l 244 407 l 244 983 l 128 983 z "},"l":{"ha":358,"x_min":0,"x_max":0,"o":"m 125 0 l 242 0 l 242 983 l 125 983 z "},"m":{"ha":1197,"x_min":0,"x_max":0,"o":"m 1075 493 b 878 711 1075 631 1004 711 b 650 565 778 711 701 663 b 463 711 628 658 558 711 b 244 571 364 711 292 664 l 244 700 l 128 700 l 128 0 l 244 0 l 244 288 b 431 606 244 483 325 606 b 543 468 506 606 543 560 l 543 0 l 660 0 l 660 288 b 846 606 660 483 740 606 b 958 468 921 606 958 560 l 958 0 l 1075 0 z "},"n":{"ha":801,"x_min":0,"x_max":0,"o":"m 682 493 b 476 711 682 632 604 711 b 244 571 375 711 297 664 l 244 700 l 128 700 l 128 0 l 244 0 l 244 293 b 303 519 244 386 264 463 b 444 606 343 576 390 606 b 565 463 525 606 565 558 l 565 0 l 682 0 z "},"o":{"ha":822,"x_min":0,"x_max":0,"o":"m 167 94 b 411 -11 229 24 310 -11 b 654 94 513 -11 593 24 b 747 350 717 165 747 251 b 654 604 747 449 717 533 b 411 711 593 675 513 711 b 167 604 310 711 229 675 b 75 350 106 533 75 449 b 167 94 75 251 106 165 z m 251 529 b 411 606 290 581 343 606 b 569 529 479 606 532 581 b 628 350 608 479 628 419 b 569 169 628 281 608 221 b 411 94 532 119 479 94 b 251 169 343 94 290 119 b 194 350 214 221 194 281 b 251 529 194 419 214 479 z "},"p":{"ha":835,"x_min":0,"x_max":0,"o":"m 449 -11 b 760 350 649 -11 760 133 b 449 711 760 567 649 711 b 244 614 365 711 279 668 l 244 700 l 128 700 l 128 -283 l 244 -283 l 244 83 b 325 19 257 61 285 40 b 449 -11 365 -1 407 -11 z m 438 606 b 640 350 560 606 640 501 b 438 94 640 199 560 94 b 235 350 311 94 235 199 b 438 606 235 501 311 606 z "},"q":{"ha":835,"x_min":0,"x_max":0,"o":"m 386 711 b 75 350 186 711 75 567 b 386 -11 75 133 186 -11 b 510 19 428 -11 469 -1 b 590 83 550 40 578 61 l 590 -283 l 707 -283 l 707 700 l 590 700 l 590 614 b 386 711 556 668 469 711 z m 397 94 b 194 350 275 94 194 199 b 397 606 194 501 275 606 b 600 350 524 606 600 501 b 397 94 600 199 524 94 z "},"r":{"ha":574,"x_min":0,"x_max":0,"o":"m 546 690 b 450 711 519 704 488 711 b 244 581 372 711 285 658 l 244 700 l 128 700 l 128 0 l 244 0 l 244 265 b 303 515 244 372 264 456 b 440 606 342 575 388 606 b 522 586 469 606 496 599 z "},"s":{"ha":640,"x_min":0,"x_max":0,"o":"m 328 711 b 122 518 204 711 122 629 b 331 306 122 385 239 340 b 444 204 393 283 444 250 b 332 94 444 131 407 94 b 169 232 261 94 207 140 l 71 178 b 332 -11 111 71 200 -11 b 564 211 475 -11 564 72 b 239 517 565 417 238 392 b 324 606 239 572 275 606 b 451 536 367 606 408 582 l 531 604 b 328 711 481 675 413 711 z "},"t":{"ha":525,"x_min":0,"x_max":0,"o":"m 156 594 l 156 219 b 358 -11 156 68 235 -11 b 472 15 404 -11 442 -3 l 444 117 b 365 94 422 101 396 94 b 272 210 306 94 272 136 l 272 594 l 456 594 l 456 700 l 272 700 l 272 983 l 156 910 l 156 700 l 35 700 l 35 594 z "},"u":{"ha":801,"x_min":0,"x_max":0,"o":"m 119 207 b 325 -11 119 68 197 -11 b 557 129 426 -11 504 36 l 557 0 l 674 0 l 674 700 l 557 700 l 557 407 b 497 181 557 314 538 238 b 357 94 458 124 411 94 b 236 238 276 94 236 142 l 236 700 l 119 700 z "},"v":{"ha":633,"x_min":0,"x_max":0,"o":"m 317 149 l 146 700 l 26 700 l 257 0 l 376 0 l 607 700 l 488 700 z "},"w":{"ha":1025,"x_min":0,"x_max":0,"o":"m 708 163 l 571 700 l 454 700 l 317 163 l 174 700 l 51 700 l 264 0 l 375 0 l 513 532 l 650 0 l 761 0 l 974 700 l 851 700 z "},"x":{"ha":636,"x_min":0,"x_max":0,"o":"m 253 369 l 25 0 l 157 0 l 318 263 l 479 0 l 611 0 l 383 369 l 586 700 l 454 700 l 318 478 l 182 700 l 50 700 z "},"y":{"ha":639,"x_min":0,"x_max":0,"o":"m 326 194 l 149 700 l 21 700 l 267 29 l 156 -283 l 275 -283 l 622 700 l 500 700 z "},"z":{"ha":633,"x_min":0,"x_max":0,"o":"m 400 594 l 69 50 l 69 0 l 569 0 l 569 106 l 225 106 l 557 650 l 557 700 l 88 700 l 88 594 z "},"{":{"ha":442,"x_min":0,"x_max":0,"o":"m 197 69 b 336 -69 197 -14 253 -69 l 403 -69 l 403 36 l 371 36 b 308 99 326 36 308 54 l 308 350 b 208 486 308 438 274 469 b 308 622 274 503 308 535 l 308 874 b 371 936 308 918 326 936 l 403 936 l 403 1042 l 336 1042 b 197 903 253 1042 197 986 l 197 650 b 86 539 197 567 169 539 l 86 433 b 197 322 169 433 197 406 z "},"|":{"ha":381,"x_min":0,"x_max":0,"o":"m 135 -69 l 246 -69 l 246 1042 l 135 1042 z "},"}":{"ha":442,"x_min":0,"x_max":0,"o":"m 244 322 b 356 433 244 406 272 433 l 356 539 b 244 650 272 539 244 567 l 244 903 b 106 1042 244 986 189 1042 l 39 1042 l 39 936 l 71 936 b 133 874 115 936 133 918 l 133 622 b 233 486 133 535 168 503 b 133 350 168 469 133 438 l 133 99 b 71 36 133 54 115 36 l 39 36 l 39 -69 l 106 -69 b 244 69 189 -69 244 -14 z "},"~":{"ha":872,"x_min":0,"x_max":0,"o":"m 179 372 b 308 435 214 414 257 435 b 436 400 340 435 383 424 b 578 365 490 376 538 365 b 761 488 654 365 721 411 l 693 558 b 564 496 658 517 615 496 b 436 531 532 496 490 507 b 294 565 382 554 335 565 b 111 442 221 565 151 518 z "}," ":{"ha":372,"x_min":0,"x_max":0,"o":""},"¡":{"ha":479,"x_min":0,"x_max":0,"o":"m 282 408 l 190 408 l 157 -286 l 315 -286 z m 139 596 b 236 497 139 540 181 497 b 333 596 292 497 333 540 b 236 690 333 650 292 690 b 139 596 181 690 139 650 z "},"¢":{"ha":778,"x_min":0,"x_max":0,"o":"m 593 360 b 401 232 557 275 493 232 b 203 486 272 232 203 338 b 401 740 203 635 272 740 b 593 613 493 740 557 697 l 694 654 b 457 844 646 767 567 829 l 457 1042 l 346 1042 l 346 843 b 151 722 261 831 197 790 b 83 486 106 656 83 576 b 151 249 83 396 106 317 b 346 129 197 182 261 142 l 346 -69 l 457 -69 l 457 128 b 694 318 567 143 646 206 z "},"£":{"ha":754,"x_min":0,"x_max":0,"o":"m 203 450 b 217 349 213 415 217 381 b 63 75 217 256 172 179 l 142 -11 b 299 44 192 26 244 44 b 392 17 319 44 351 35 b 513 -11 433 -1 474 -11 b 722 144 597 -11 667 40 l 631 194 b 506 100 588 122 556 100 b 428 126 488 100 463 108 b 335 154 393 144 363 154 b 214 117 292 154 251 142 b 324 363 288 188 324 269 b 314 450 324 392 321 421 l 506 450 l 506 561 l 278 561 b 256 703 263 606 256 653 b 407 872 256 814 318 872 b 575 743 485 872 535 836 l 679 792 b 407 983 635 914 536 983 b 139 704 246 983 139 876 b 164 561 139 658 147 611 l 90 561 l 90 450 z "},"¤":{"ha":769,"x_min":0,"x_max":0,"o":"m 158 586 b 158 267 93 492 93 361 l 36 174 l 132 78 l 225 199 b 544 199 319 128 450 128 l 638 78 l 733 174 l 611 267 b 611 586 676 361 676 492 l 733 679 l 638 775 l 544 654 b 225 654 450 725 319 725 l 132 775 l 36 679 z m 265 553 b 385 601 296 585 336 601 b 503 553 433 601 474 585 b 549 426 533 521 549 478 b 503 300 549 375 533 332 b 385 251 474 268 433 251 b 265 300 336 251 296 268 b 221 426 236 332 221 375 b 265 553 221 478 236 521 z "},"¥":{"ha":700,"x_min":0,"x_max":0,"o":"m 233 538 l 72 538 l 72 426 l 289 426 l 289 315 l 72 315 l 72 204 l 289 204 l 289 0 l 411 0 l 411 204 l 628 204 l 628 315 l 411 315 l 411 426 l 628 426 l 628 538 l 467 538 l 685 972 l 550 972 l 350 553 l 150 972 l 15 972 z "},"¦":{"ha":381,"x_min":0,"x_max":0,"o":"m 135 -69 l 246 -69 l 246 415 l 135 415 z m 246 1042 l 135 1042 l 135 557 l 246 557 z "},"§":{"ha":750,"x_min":0,"x_max":0,"o":"m 92 381 b 232 183 92 299 139 233 b 315 143 253 172 281 158 b 392 106 350 128 375 115 b 447 69 410 96 428 85 b 500 -42 486 42 500 7 b 376 -183 500 -126 444 -183 b 224 -54 300 -183 249 -140 l 117 -89 b 376 -294 151 -226 238 -294 b 544 -224 442 -294 497 -271 b 617 -36 593 -178 617 -115 b 560 118 617 24 597 75 b 661 308 628 168 661 218 b 521 506 661 390 614 456 b 438 546 500 517 472 531 b 360 583 403 561 378 574 b 306 618 343 593 325 604 b 253 731 267 647 253 682 b 376 872 253 815 308 872 b 529 743 453 872 504 829 l 636 778 b 376 983 601 915 515 983 b 207 913 311 983 256 960 b 136 725 160 867 136 804 b 193 571 136 665 156 614 b 92 381 125 521 92 471 z m 199 393 b 276 506 199 440 225 478 b 369 460 299 493 329 478 b 463 415 410 442 440 428 b 554 296 508 393 554 347 b 476 183 554 249 528 211 b 383 229 454 196 424 211 l 289 272 b 199 393 244 296 199 342 z "},"¨":{"ha":443,"x_min":0,"x_max":0,"o":"m 106 983 b 28 904 63 983 28 949 b 106 826 28 860 63 826 b 185 904 151 826 185 860 b 106 983 185 949 151 983 z m 336 983 b 258 904 293 983 258 949 b 336 826 258 860 293 826 b 415 904 382 826 415 860 b 336 983 415 949 382 983 z "},"©":{"ha":1250,"x_min":0,"x_max":0,"o":"m 247 99 b 625 -56 349 -4 474 -56 b 1001 99 776 -56 901 -4 b 1153 486 1103 203 1153 332 b 1001 872 1153 640 1103 769 b 625 1028 901 976 776 1028 b 247 872 474 1028 349 976 b 97 486 147 769 97 640 b 247 99 97 332 147 203 z m 324 797 b 625 922 400 881 501 922 b 926 797 749 922 850 881 b 1042 486 1003 714 1042 610 b 926 175 1042 363 1003 258 b 625 50 850 92 749 50 b 324 175 501 50 400 92 b 208 486 247 258 208 363 b 324 797 208 610 247 714 z m 768 392 b 625 283 744 319 697 283 b 458 486 526 283 458 349 b 625 689 458 624 526 689 b 768 581 697 689 744 653 l 865 604 b 625 786 843 717 746 786 b 435 708 553 786 489 760 b 353 486 381 657 353 583 b 435 263 353 389 381 314 b 625 186 489 211 553 186 b 865 368 746 186 843 256 z "},"ª":{"ha":607,"x_min":0,"x_max":0,"o":"m 179 578 b 326 679 179 640 233 679 l 425 679 l 425 661 b 271 494 425 549 353 494 b 179 578 214 494 179 524 z m 517 771 b 311 978 517 908 439 978 b 108 826 206 978 126 915 l 189 808 b 304 894 201 863 247 894 b 425 781 385 894 425 857 l 425 757 l 335 757 b 88 578 181 757 88 694 b 256 411 88 467 157 411 b 429 497 332 411 389 440 l 442 417 l 517 417 z "},"«":{"ha":849,"x_min":0,"x_max":0,"o":"m 771 111 l 771 236 l 500 431 l 771 625 l 771 750 l 386 474 l 386 388 z m 451 111 l 451 236 l 181 431 l 451 625 l 451 750 l 67 474 l 67 388 z "},"¬":{"ha":807,"x_min":0,"x_max":0,"o":"m 581 435 l 581 197 l 697 197 l 697 540 l 96 540 l 96 435 z "},"­":{"ha":668,"x_min":0,"x_max":0,"o":"m 569 389 l 569 492 l 99 492 l 99 389 z "},"®":{"ha":1250,"x_min":0,"x_max":0,"o":"m 247 99 b 625 -56 349 -4 474 -56 b 1001 99 776 -56 901 -4 b 1153 486 1103 203 1153 332 b 1001 872 1153 640 1103 769 b 625 1028 901 976 776 1028 b 247 872 474 1028 349 976 b 97 486 147 769 97 640 b 247 99 97 332 147 203 z m 324 797 b 625 922 400 881 501 922 b 926 797 749 922 850 881 b 1042 486 1003 714 1042 610 b 926 175 1042 363 1003 258 b 625 50 850 92 749 50 b 324 175 501 50 400 92 b 208 486 247 258 208 363 b 324 797 208 610 247 714 z m 872 190 l 696 449 b 826 613 772 464 826 528 b 643 782 826 717 761 782 l 431 782 l 431 190 l 531 190 l 531 443 l 583 443 l 758 190 z m 642 685 b 726 613 699 685 726 661 b 642 540 726 564 699 540 l 531 540 l 531 685 z "},"¯":{"ha":379,"x_min":0,"x_max":0,"o":"m 363 878 l 363 983 l 17 983 l 17 878 z "},"°":{"ha":494,"x_min":0,"x_max":0,"o":"m 135 713 b 247 669 164 683 201 669 b 358 713 293 669 329 683 b 403 824 388 742 403 779 b 358 933 403 868 388 904 b 247 978 329 963 293 978 b 135 933 201 978 164 963 b 92 824 106 904 92 868 b 135 713 92 779 106 742 z m 199 872 b 296 872 222 899 272 899 b 296 774 319 849 319 800 b 199 774 272 750 222 750 b 199 872 175 800 175 849 z "},"±":{"ha":789,"x_min":0,"x_max":0,"o":"m 344 606 l 90 606 l 90 503 l 344 503 l 344 249 l 447 249 l 447 503 l 701 503 l 701 606 l 447 606 l 447 860 l 344 860 z m 701 0 l 701 103 l 90 103 l 90 0 z "},"²":{"ha":531,"x_min":0,"x_max":0,"o":"m 182 799 b 264 894 188 858 219 894 b 339 814 314 894 339 868 b 293 707 339 781 324 744 l 86 451 l 86 417 l 444 417 l 444 500 l 235 500 l 378 674 b 431 817 413 717 431 765 b 264 978 431 917 368 978 b 93 822 171 978 103 913 z "},"³":{"ha":540,"x_min":0,"x_max":0,"o":"m 86 576 b 271 411 93 476 167 411 b 454 599 381 411 454 489 b 292 765 454 697 388 765 l 422 940 l 422 972 l 113 972 l 113 889 l 290 889 l 176 739 l 219 682 b 271 697 233 692 250 697 b 363 599 331 697 363 660 b 271 494 363 538 332 494 b 175 589 219 494 182 529 z "},"´":{"ha":317,"x_min":0,"x_max":0,"o":"m 122 778 l 290 978 l 122 978 l 28 778 z "},"µ":{"ha":801,"x_min":0,"x_max":0,"o":"m 236 4 b 325 -11 263 -6 292 -11 b 557 129 426 -11 504 36 l 557 0 l 674 0 l 674 700 l 557 700 l 557 407 b 497 181 557 314 538 238 b 357 94 458 124 411 94 b 236 238 276 94 236 142 l 236 700 l 119 700 l 119 -283 l 236 -283 z "},"¶":{"ha":951,"x_min":0,"x_max":0,"o":"m 351 972 b 161 893 278 972 214 946 b 83 704 110 842 83 778 b 161 514 83 631 110 567 b 351 436 214 463 278 436 l 351 -283 l 468 -283 l 468 867 l 657 867 l 657 -283 l 774 -283 l 774 867 l 860 867 l 860 972 z "},"·":{"ha":425,"x_min":0,"x_max":0,"o":"m 125 485 b 213 397 125 435 163 397 b 300 485 261 397 300 435 b 213 572 300 533 261 572 b 125 485 163 572 125 533 z "},"¸":{"ha":275,"x_min":0,"x_max":0,"o":"m 164 -83 l 14 -264 l 146 -326 l 261 -83 z "},"¹":{"ha":406,"x_min":0,"x_max":0,"o":"m 79 888 l 79 790 l 199 846 l 199 417 l 286 417 l 286 972 l 256 972 z "},"º":{"ha":717,"x_min":0,"x_max":0,"o":"m 96 694 b 167 493 96 615 119 549 b 358 411 215 439 279 411 b 549 493 438 411 500 439 b 621 694 597 549 621 615 b 549 894 621 772 597 839 b 358 978 500 950 438 978 b 167 894 279 978 215 950 b 96 694 119 839 96 772 z m 358 493 b 232 553 304 493 263 513 b 188 694 203 593 188 640 b 232 835 188 749 203 796 b 358 894 263 875 304 894 b 483 835 413 894 454 875 b 528 694 513 796 528 749 b 482 553 528 640 513 593 b 358 493 453 513 411 493 z "},"»":{"ha":849,"x_min":0,"x_max":0,"o":"m 78 750 l 78 625 l 349 431 l 78 236 l 78 111 l 463 388 l 463 474 z m 397 750 l 397 625 l 668 431 l 397 236 l 397 111 l 782 388 l 782 474 z "},"¼":{"ha":1103,"x_min":0,"x_max":0,"o":"m 108 888 l 108 790 l 228 846 l 228 417 l 315 417 l 315 972 l 285 972 z m 144 15 l 214 -40 l 961 958 l 892 1013 z m 918 0 l 918 107 l 983 107 l 983 190 l 918 190 l 918 556 l 818 556 l 594 143 l 594 107 l 831 107 l 831 0 z m 831 426 l 831 190 l 708 190 z "},"½":{"ha":1193,"x_min":0,"x_max":0,"o":"m 108 888 l 108 790 l 228 846 l 228 417 l 315 417 l 315 972 l 285 972 z m 789 382 b 871 478 794 442 826 478 b 946 397 921 478 946 451 b 900 290 946 364 931 328 l 693 35 l 693 0 l 1051 0 l 1051 83 l 842 83 l 985 257 b 1038 400 1019 300 1038 349 b 871 561 1038 500 975 561 b 700 406 778 561 710 496 z m 144 15 l 214 -40 l 961 958 l 892 1013 z "},"¾":{"ha":1188,"x_min":0,"x_max":0,"o":"m 233 15 l 303 -40 l 1050 958 l 981 1013 z m 86 576 b 271 411 93 476 167 411 b 454 599 381 411 454 489 b 292 765 454 697 388 765 l 422 940 l 422 972 l 113 972 l 113 889 l 290 889 l 176 739 l 219 682 b 271 697 233 692 250 697 b 363 599 331 697 363 660 b 271 494 363 538 332 494 b 175 589 219 494 182 529 z m 1003 0 l 1003 107 l 1068 107 l 1068 190 l 1003 190 l 1003 556 l 903 556 l 679 143 l 679 107 l 915 107 l 915 0 z m 915 426 l 915 190 l 793 190 z "},"¿":{"ha":622,"x_min":0,"x_max":0,"o":"m 396 599 b 304 690 396 650 356 690 b 210 599 250 690 210 650 b 304 504 210 544 250 504 b 396 599 356 504 396 544 z m 208 228 b 308 310 232 282 265 310 b 381 239 353 310 381 283 b 313 143 381 200 358 168 l 172 75 b 67 -90 101 40 67 -14 b 129 -236 67 -149 88 -197 b 301 -297 172 -276 231 -297 b 556 -89 439 -297 528 -217 l 447 -71 b 301 -200 425 -149 374 -200 b 211 -169 264 -200 235 -190 b 181 -97 190 -151 181 -128 b 242 1 181 -54 201 -21 b 369 58 269 17 329 36 b 488 233 449 99 488 157 b 304 407 488 340 415 407 b 118 260 214 407 151 358 z "},"À":{"ha":822,"x_min":0,"x_max":0,"o":"m 17 0 l 139 0 l 225 260 l 597 260 l 683 0 l 806 0 l 469 972 l 353 972 z m 558 376 l 264 376 l 411 814 z m 219 1250 l 388 1050 l 482 1050 l 388 1250 z "},"Á":{"ha":822,"x_min":0,"x_max":0,"o":"m 17 0 l 139 0 l 225 260 l 597 260 l 683 0 l 806 0 l 469 972 l 353 972 z m 558 376 l 264 376 l 411 814 z m 421 1050 l 589 1250 l 421 1250 l 326 1050 z "},"Â":{"ha":822,"x_min":0,"x_max":0,"o":"m 17 0 l 139 0 l 225 260 l 597 260 l 683 0 l 806 0 l 469 972 l 353 972 z m 558 376 l 264 376 l 411 814 z m 304 1058 l 415 1176 l 526 1058 l 646 1058 l 433 1286 l 397 1286 l 185 1058 z "},"Ã":{"ha":822,"x_min":0,"x_max":0,"o":"m 17 0 l 139 0 l 225 260 l 597 260 l 683 0 l 806 0 l 469 972 l 353 972 z m 558 376 l 264 376 l 411 814 z m 235 1086 b 326 1136 261 1119 292 1136 b 408 1108 347 1136 375 1126 b 508 1081 442 1090 475 1081 b 657 1185 568 1081 624 1124 l 589 1239 b 497 1189 563 1206 532 1189 b 415 1217 476 1189 449 1199 b 315 1244 382 1235 349 1244 b 167 1139 256 1244 200 1201 z "},"Ä":{"ha":822,"x_min":0,"x_max":0,"o":"m 17 0 l 139 0 l 225 260 l 597 260 l 683 0 l 806 0 l 469 972 l 353 972 z m 558 376 l 264 376 l 411 814 z m 296 1256 b 218 1176 253 1256 218 1221 b 296 1099 218 1132 253 1099 b 375 1176 342 1099 375 1132 b 296 1256 375 1221 342 1256 z m 526 1256 b 449 1176 483 1256 449 1221 b 526 1099 449 1132 483 1099 b 606 1176 572 1099 606 1132 b 526 1256 606 1221 572 1256 z "},"Å":{"ha":822,"x_min":0,"x_max":0,"o":"m 17 0 l 139 0 l 225 260 l 597 260 l 683 0 l 806 0 l 469 972 l 353 972 z m 558 376 l 264 376 l 411 814 z m 274 1179 b 411 1046 274 1103 333 1046 b 549 1179 490 1046 549 1103 b 411 1318 549 1257 490 1318 b 274 1179 333 1318 274 1257 z m 351 1181 b 471 1181 344 1264 478 1264 b 351 1181 478 1101 344 1101 z "},"Æ":{"ha":1153,"x_min":0,"x_max":0,"o":"m 14 0 l 139 0 l 250 260 l 501 260 l 501 0 l 1074 0 l 1074 117 l 624 117 l 624 460 l 976 460 l 976 576 l 624 576 l 624 856 l 1060 856 l 1060 972 l 438 972 z m 501 813 l 501 376 l 300 376 l 488 813 z "},"Ç":{"ha":956,"x_min":0,"x_max":0,"o":"m 778 318 b 515 106 732 176 644 106 b 289 204 422 106 347 139 b 203 486 232 269 203 364 b 289 768 203 608 232 703 b 515 867 347 833 422 867 b 778 654 644 867 732 796 l 896 689 b 763 901 874 776 829 847 b 515 983 696 956 614 983 b 204 853 394 983 290 940 b 76 486 119 765 76 643 b 204 119 76 329 119 207 b 515 -11 290 32 394 -11 b 763 69 614 -11 696 15 b 896 283 829 124 874 196 z m 503 -83 l 353 -264 l 485 -326 l 600 -83 z "},"È":{"ha":786,"x_min":0,"x_max":0,"o":"m 135 0 l 707 0 l 707 117 l 257 117 l 257 460 l 610 460 l 610 576 l 257 576 l 257 856 l 693 856 l 693 972 l 135 972 z m 258 1250 l 426 1050 l 521 1050 l 426 1250 z "},"É":{"ha":786,"x_min":0,"x_max":0,"o":"m 135 0 l 707 0 l 707 117 l 257 117 l 257 460 l 610 460 l 610 576 l 257 576 l 257 856 l 693 856 l 693 972 l 135 972 z m 413 1050 l 581 1250 l 413 1250 l 318 1050 z "},"Ê":{"ha":786,"x_min":0,"x_max":0,"o":"m 135 0 l 707 0 l 707 117 l 257 117 l 257 460 l 610 460 l 610 576 l 257 576 l 257 856 l 693 856 l 693 972 l 135 972 z m 328 1058 l 439 1176 l 550 1058 l 669 1058 l 457 1286 l 421 1286 l 208 1058 z "},"Ë":{"ha":786,"x_min":0,"x_max":0,"o":"m 135 0 l 707 0 l 707 117 l 257 117 l 257 460 l 610 460 l 610 576 l 257 576 l 257 856 l 693 856 l 693 972 l 135 972 z m 306 1256 b 228 1176 263 1256 228 1221 b 306 1099 228 1132 263 1099 b 385 1176 351 1099 385 1132 b 306 1256 385 1221 351 1256 z m 536 1256 b 458 1176 493 1256 458 1221 b 536 1099 458 1132 493 1099 b 615 1176 582 1099 615 1132 b 536 1256 615 1221 582 1256 z "},"Ì":{"ha":392,"x_min":0,"x_max":0,"o":"m 135 0 l 257 0 l 257 972 l 135 972 z m 22 1250 l 190 1050 l 285 1050 l 190 1250 z "},"Í":{"ha":392,"x_min":0,"x_max":0,"o":"m 135 0 l 257 0 l 257 972 l 135 972 z m 200 1050 l 368 1250 l 200 1250 l 106 1050 z "},"Î":{"ha":392,"x_min":0,"x_max":0,"o":"m 135 0 l 257 0 l 257 972 l 135 972 z m 89 1058 l 200 1176 l 311 1058 l 431 1058 l 218 1286 l 182 1286 l -31 1058 z "},"Ï":{"ha":392,"x_min":0,"x_max":0,"o":"m 135 0 l 257 0 l 257 972 l 135 972 z m 81 1256 b 3 1176 38 1256 3 1221 b 81 1099 3 1132 38 1099 b 160 1176 126 1099 160 1132 b 81 1256 160 1221 126 1256 z m 311 1256 b 233 1176 268 1256 233 1221 b 311 1099 233 1132 268 1099 b 390 1176 357 1099 390 1132 b 311 1256 390 1221 357 1256 z "},"Ð":{"ha":954,"x_min":0,"x_max":0,"o":"m 164 428 l 164 0 l 431 0 b 749 129 557 0 663 43 b 878 486 835 217 878 335 b 749 842 878 638 835 756 b 431 972 663 929 557 972 l 164 972 l 164 544 l 49 544 l 49 428 z m 410 856 b 747 486 589 856 747 758 b 410 117 747 214 589 117 l 286 117 l 286 428 l 401 428 l 401 544 l 286 544 l 286 856 z "},"Ñ":{"ha":974,"x_min":0,"x_max":0,"o":"m 717 213 l 278 972 l 135 972 l 135 0 l 257 0 l 257 757 l 696 0 l 839 0 l 839 972 l 717 972 z m 317 1086 b 408 1136 343 1119 374 1136 b 490 1108 429 1136 457 1126 b 590 1081 524 1090 557 1081 b 739 1185 650 1081 706 1124 l 671 1239 b 579 1189 644 1206 614 1189 b 497 1217 558 1189 531 1199 b 397 1244 464 1235 431 1244 b 249 1139 338 1244 282 1201 z "},"Ò":{"ha":1025,"x_min":0,"x_max":0,"o":"m 203 850 b 76 486 118 763 76 640 b 203 121 76 332 118 210 b 513 -11 288 33 390 -11 b 822 121 635 -11 738 33 b 949 486 907 210 949 332 b 822 850 949 640 907 763 b 513 983 738 939 635 983 b 203 850 390 983 288 939 z m 735 768 b 822 486 793 703 822 608 b 735 204 822 364 793 269 b 513 106 678 139 603 106 b 289 204 422 106 347 139 b 203 486 232 269 203 364 b 289 768 203 608 232 703 b 513 867 347 833 422 867 b 735 768 603 867 678 833 z m 353 1250 l 521 1050 l 615 1050 l 521 1250 z "},"Ó":{"ha":1025,"x_min":0,"x_max":0,"o":"m 203 850 b 76 486 118 763 76 640 b 203 121 76 332 118 210 b 513 -11 288 33 390 -11 b 822 121 635 -11 738 33 b 949 486 907 210 949 332 b 822 850 949 640 907 763 b 513 983 738 939 635 983 b 203 850 390 983 288 939 z m 735 768 b 822 486 793 703 822 608 b 735 204 822 364 793 269 b 513 106 678 139 603 106 b 289 204 422 106 347 139 b 203 486 232 269 203 364 b 289 768 203 608 232 703 b 513 867 347 833 422 867 b 735 768 603 867 678 833 z m 503 1050 l 671 1250 l 503 1250 l 408 1050 z "},"Ô":{"ha":1025,"x_min":0,"x_max":0,"o":"m 203 850 b 76 486 118 763 76 640 b 203 121 76 332 118 210 b 513 -11 288 33 390 -11 b 822 121 635 -11 738 33 b 949 486 907 210 949 332 b 822 850 949 640 907 763 b 513 983 738 939 635 983 b 203 850 390 983 288 939 z m 735 768 b 822 486 793 703 822 608 b 735 204 822 364 793 269 b 513 106 678 139 603 106 b 289 204 422 106 347 139 b 203 486 232 269 203 364 b 289 768 203 608 232 703 b 513 867 347 833 422 867 b 735 768 603 867 678 833 z m 406 1058 l 517 1176 l 628 1058 l 747 1058 l 535 1286 l 499 1286 l 286 1058 z "},"Õ":{"ha":1025,"x_min":0,"x_max":0,"o":"m 203 850 b 76 486 118 763 76 640 b 203 121 76 332 118 210 b 513 -11 288 33 390 -11 b 822 121 635 -11 738 33 b 949 486 907 210 949 332 b 822 850 949 640 907 763 b 513 983 738 939 635 983 b 203 850 390 983 288 939 z m 735 768 b 822 486 793 703 822 608 b 735 204 822 364 793 269 b 513 106 678 139 603 106 b 289 204 422 106 347 139 b 203 486 232 269 203 364 b 289 768 203 608 232 703 b 513 867 347 833 422 867 b 735 768 603 867 678 833 z m 336 1086 b 428 1136 363 1119 393 1136 b 510 1108 449 1136 476 1126 b 610 1081 543 1090 576 1081 b 758 1185 669 1081 725 1124 l 690 1239 b 599 1189 664 1206 633 1189 b 517 1217 578 1189 550 1199 b 417 1244 483 1235 450 1244 b 268 1139 357 1244 301 1201 z "},"Ö":{"ha":1025,"x_min":0,"x_max":0,"o":"m 203 850 b 76 486 118 763 76 640 b 203 121 76 332 118 210 b 513 -11 288 33 390 -11 b 822 121 635 -11 738 33 b 949 486 907 210 949 332 b 822 850 949 640 907 763 b 513 983 738 939 635 983 b 203 850 390 983 288 939 z m 735 768 b 822 486 793 703 822 608 b 735 204 822 364 793 269 b 513 106 678 139 603 106 b 289 204 422 106 347 139 b 203 486 232 269 203 364 b 289 768 203 608 232 703 b 513 867 347 833 422 867 b 735 768 603 867 678 833 z m 397 1256 b 319 1176 354 1256 319 1221 b 397 1099 319 1132 354 1099 b 476 1176 443 1099 476 1132 b 397 1256 476 1221 443 1256 z m 628 1256 b 550 1176 585 1256 550 1221 b 628 1099 550 1132 585 1099 b 707 1176 674 1099 707 1132 b 628 1256 707 1221 674 1256 z "},"×":{"ha":769,"x_min":0,"x_max":0,"o":"m 385 515 l 165 735 l 93 663 l 313 443 l 93 224 l 165 151 l 385 371 l 604 151 l 676 224 l 457 443 l 676 663 l 604 735 z "},"Ø":{"ha":1025,"x_min":0,"x_max":0,"o":"m 513 983 b 203 850 390 983 288 939 b 76 486 118 763 76 640 b 185 143 76 347 113 233 l 92 24 l 174 -37 l 258 72 b 513 -11 331 17 415 -11 b 822 121 635 -11 738 33 b 949 486 907 210 949 332 b 840 829 949 625 913 739 l 933 949 l 851 1010 l 767 900 b 513 983 694 956 610 983 z m 822 486 b 735 204 822 364 793 269 b 513 106 678 139 603 106 b 331 165 442 106 382 125 l 763 728 b 822 486 803 665 822 585 z m 513 867 b 694 807 583 867 643 847 l 263 244 b 203 486 222 307 203 388 b 289 768 203 608 232 703 b 513 867 347 833 422 867 z "},"Ù":{"ha":908,"x_min":0,"x_max":0,"o":"m 114 331 b 210 79 114 224 146 139 b 454 -11 275 19 356 -11 b 697 79 553 -11 633 19 b 794 331 763 139 794 224 l 794 972 l 672 972 l 672 322 b 454 106 672 194 592 106 b 236 322 317 106 236 194 l 236 972 l 114 972 z m 301 1250 l 469 1050 l 564 1050 l 469 1250 z "},"Ú":{"ha":908,"x_min":0,"x_max":0,"o":"m 114 331 b 210 79 114 224 146 139 b 454 -11 275 19 356 -11 b 697 79 553 -11 633 19 b 794 331 763 139 794 224 l 794 972 l 672 972 l 672 322 b 454 106 672 194 592 106 b 236 322 317 106 236 194 l 236 972 l 114 972 z m 438 1050 l 606 1250 l 438 1250 l 343 1050 z "},"Û":{"ha":908,"x_min":0,"x_max":0,"o":"m 114 331 b 210 79 114 224 146 139 b 454 -11 275 19 356 -11 b 697 79 553 -11 633 19 b 794 331 763 139 794 224 l 794 972 l 672 972 l 672 322 b 454 106 672 194 592 106 b 236 322 317 106 236 194 l 236 972 l 114 972 z m 347 1058 l 458 1176 l 569 1058 l 689 1058 l 476 1286 l 440 1286 l 228 1058 z "},"Ü":{"ha":908,"x_min":0,"x_max":0,"o":"m 114 331 b 210 79 114 224 146 139 b 454 -11 275 19 356 -11 b 697 79 553 -11 633 19 b 794 331 763 139 794 224 l 794 972 l 672 972 l 672 322 b 454 106 672 194 592 106 b 236 322 317 106 236 194 l 236 972 l 114 972 z m 339 1256 b 261 1176 296 1256 261 1221 b 339 1099 261 1132 296 1099 b 418 1176 385 1099 418 1132 b 339 1256 418 1221 385 1256 z m 569 1256 b 492 1176 526 1256 492 1221 b 569 1099 492 1132 526 1099 b 649 1176 615 1099 649 1132 b 569 1256 649 1221 615 1256 z "},"Ý":{"ha":703,"x_min":0,"x_max":0,"o":"m 290 0 l 413 0 l 413 419 l 697 972 l 563 972 l 351 542 l 140 972 l 6 972 l 290 419 z m 371 1050 l 539 1250 l 371 1250 l 276 1050 z "},"Þ":{"ha":811,"x_min":0,"x_max":0,"o":"m 474 208 b 763 486 656 208 763 315 b 474 764 763 657 656 764 l 257 764 l 257 972 l 135 972 l 135 0 l 257 0 l 257 208 z m 257 325 l 257 647 l 481 647 b 636 486 581 647 636 590 b 481 325 636 382 581 325 z "},"ß":{"ha":769,"x_min":0,"x_max":0,"o":"m 122 481 l 122 0 l 239 0 l 239 697 b 385 878 239 814 292 878 b 532 731 475 878 532 824 b 396 583 532 632 486 583 l 347 583 l 347 481 l 396 481 b 592 286 518 481 592 413 b 410 94 592 160 526 94 b 311 104 376 94 343 97 l 311 -1 b 410 -11 339 -8 372 -11 b 708 294 592 -11 708 89 b 650 463 708 363 689 419 b 518 542 613 506 568 532 b 643 735 590 565 643 633 b 385 983 643 879 550 983 b 197 910 310 983 247 958 b 122 701 147 861 122 792 l 122 583 l 53 583 l 53 481 z "},"à":{"ha":719,"x_min":0,"x_max":0,"o":"m 197 201 b 383 325 197 281 265 325 l 508 325 l 508 308 b 450 146 508 235 489 181 b 313 94 411 111 365 94 b 197 201 239 94 197 135 z m 625 447 b 356 711 625 625 518 711 b 107 519 224 711 125 638 l 210 496 b 356 606 225 564 282 606 b 508 461 457 606 508 557 l 508 431 l 394 431 b 78 201 199 431 78 350 b 294 -11 78 58 168 -11 b 514 99 390 -11 463 25 l 533 0 l 625 0 z m 188 978 l 356 778 l 450 778 l 356 978 z "},"á":{"ha":719,"x_min":0,"x_max":0,"o":"m 197 201 b 383 325 197 281 265 325 l 508 325 l 508 308 b 450 146 508 235 489 181 b 313 94 411 111 365 94 b 197 201 239 94 197 135 z m 625 447 b 356 711 625 625 518 711 b 107 519 224 711 125 638 l 210 496 b 356 606 225 564 282 606 b 508 461 457 606 508 557 l 508 431 l 394 431 b 78 201 199 431 78 350 b 294 -11 78 58 168 -11 b 514 99 390 -11 463 25 l 533 0 l 625 0 z m 346 778 l 514 978 l 346 978 l 251 778 z "},"â":{"ha":719,"x_min":0,"x_max":0,"o":"m 197 201 b 383 325 197 281 265 325 l 508 325 l 508 308 b 450 146 508 235 489 181 b 313 94 411 111 365 94 b 197 201 239 94 197 135 z m 625 447 b 356 711 625 625 518 711 b 107 519 224 711 125 638 l 210 496 b 356 606 225 564 282 606 b 508 461 457 606 508 557 l 508 431 l 394 431 b 78 201 199 431 78 350 b 294 -11 78 58 168 -11 b 514 99 390 -11 463 25 l 533 0 l 625 0 z m 250 786 l 361 904 l 472 786 l 592 786 l 379 1014 l 343 1014 l 131 786 z "},"ã":{"ha":719,"x_min":0,"x_max":0,"o":"m 197 201 b 383 325 197 281 265 325 l 508 325 l 508 308 b 450 146 508 235 489 181 b 313 94 411 111 365 94 b 197 201 239 94 197 135 z m 625 447 b 356 711 625 625 518 711 b 107 519 224 711 125 638 l 210 496 b 356 606 225 564 282 606 b 508 461 457 606 508 557 l 508 431 l 394 431 b 78 201 199 431 78 350 b 294 -11 78 58 168 -11 b 514 99 390 -11 463 25 l 533 0 l 625 0 z m 189 814 b 281 864 215 847 246 864 b 363 836 301 864 329 854 b 463 808 396 818 429 808 b 611 913 522 808 578 851 l 543 967 b 451 917 517 933 486 917 b 369 944 431 917 403 926 b 269 972 336 963 303 972 b 121 867 210 972 154 929 z "},"ä":{"ha":719,"x_min":0,"x_max":0,"o":"m 197 201 b 383 325 197 281 265 325 l 508 325 l 508 308 b 450 146 508 235 489 181 b 313 94 411 111 365 94 b 197 201 239 94 197 135 z m 625 447 b 356 711 625 625 518 711 b 107 519 224 711 125 638 l 210 496 b 356 606 225 564 282 606 b 508 461 457 606 508 557 l 508 431 l 394 431 b 78 201 199 431 78 350 b 294 -11 78 58 168 -11 b 514 99 390 -11 463 25 l 533 0 l 625 0 z m 246 983 b 168 904 203 983 168 949 b 246 826 168 860 203 826 b 325 904 292 826 325 860 b 246 983 325 949 292 983 z m 476 983 b 399 904 433 983 399 949 b 476 826 399 860 433 826 b 556 904 522 826 556 860 b 476 983 556 949 522 983 z "},"å":{"ha":719,"x_min":0,"x_max":0,"o":"m 197 201 b 383 325 197 281 265 325 l 508 325 l 508 308 b 450 146 508 235 489 181 b 313 94 411 111 365 94 b 197 201 239 94 197 135 z m 625 447 b 356 711 625 625 518 711 b 107 519 224 711 125 638 l 210 496 b 356 606 225 564 282 606 b 508 461 457 606 508 557 l 508 431 l 394 431 b 78 201 199 431 78 350 b 294 -11 78 58 168 -11 b 514 99 390 -11 463 25 l 533 0 l 625 0 z m 218 907 b 356 774 218 831 278 774 b 493 907 435 774 493 831 b 356 1046 493 985 435 1046 b 218 907 278 1046 218 985 z m 296 908 b 415 908 289 992 422 992 b 296 908 422 829 289 829 z "},"æ":{"ha":1211,"x_min":0,"x_max":0,"o":"m 1142 379 b 1057 614 1142 472 1114 550 b 825 711 1001 679 924 711 b 588 601 725 711 646 675 b 356 711 543 675 465 711 b 107 519 224 711 125 638 l 210 496 b 356 606 225 564 282 606 b 508 461 457 606 508 557 l 508 431 l 394 431 b 78 201 199 431 78 350 b 294 -11 78 58 168 -11 b 556 146 410 -11 497 42 b 825 -11 613 42 701 -11 b 1122 183 969 -11 1057 46 l 1019 228 b 825 94 979 138 924 94 b 628 325 704 94 635 188 l 1142 325 z m 197 201 b 383 325 197 281 265 325 l 508 325 l 508 308 b 450 146 508 235 489 181 b 313 94 411 111 365 94 b 197 201 239 94 197 135 z m 825 606 b 1019 431 932 606 1001 535 l 635 431 b 825 606 657 538 721 606 z "},"ç":{"ha":747,"x_min":0,"x_max":0,"o":"m 585 224 b 393 94 547 138 483 94 b 194 350 264 94 194 200 b 393 606 194 500 264 606 b 585 476 483 606 547 563 l 686 518 b 393 711 629 647 532 711 b 157 606 292 711 213 676 b 75 350 103 536 75 451 b 157 93 75 249 103 164 b 393 -11 213 24 292 -11 b 686 182 532 -11 629 53 z m 410 -83 l 260 -264 l 392 -326 l 507 -83 z "},"è":{"ha":778,"x_min":0,"x_max":0,"o":"m 708 379 b 624 614 708 472 681 550 b 392 711 568 679 490 711 b 157 606 290 711 213 676 b 75 350 103 536 75 451 b 157 93 75 249 103 164 b 392 -11 213 24 290 -11 b 689 183 536 -11 624 46 l 586 228 b 392 94 546 138 490 94 b 194 325 271 94 201 188 l 708 325 z m 392 606 b 586 431 499 606 564 536 l 201 431 b 392 606 224 538 288 606 z m 222 978 l 390 778 l 485 778 l 390 978 z "},"é":{"ha":778,"x_min":0,"x_max":0,"o":"m 708 379 b 624 614 708 472 681 550 b 392 711 568 679 490 711 b 157 606 290 711 213 676 b 75 350 103 536 75 451 b 157 93 75 249 103 164 b 392 -11 213 24 290 -11 b 689 183 536 -11 624 46 l 586 228 b 392 94 546 138 490 94 b 194 325 271 94 201 188 l 708 325 z m 392 606 b 586 431 499 606 564 536 l 201 431 b 392 606 224 538 288 606 z m 375 778 l 543 978 l 375 978 l 281 778 z "},"ê":{"ha":778,"x_min":0,"x_max":0,"o":"m 708 379 b 624 614 708 472 681 550 b 392 711 568 679 490 711 b 157 606 290 711 213 676 b 75 350 103 536 75 451 b 157 93 75 249 103 164 b 392 -11 213 24 290 -11 b 689 183 536 -11 624 46 l 586 228 b 392 94 546 138 490 94 b 194 325 271 94 201 188 l 708 325 z m 392 606 b 586 431 499 606 564 536 l 201 431 b 392 606 224 538 288 606 z m 281 786 l 392 904 l 503 786 l 622 786 l 410 1014 l 374 1014 l 161 786 z "},"ë":{"ha":778,"x_min":0,"x_max":0,"o":"m 708 379 b 624 614 708 472 681 550 b 392 711 568 679 490 711 b 157 606 290 711 213 676 b 75 350 103 536 75 451 b 157 93 75 249 103 164 b 392 -11 213 24 290 -11 b 689 183 536 -11 624 46 l 586 228 b 392 94 546 138 490 94 b 194 325 271 94 201 188 l 708 325 z m 392 606 b 586 431 499 606 564 536 l 201 431 b 392 606 224 538 288 606 z m 276 983 b 199 904 233 983 199 949 b 276 826 199 860 233 826 b 356 904 322 826 356 860 b 276 983 356 949 322 983 z m 507 983 b 429 904 464 983 429 949 b 507 826 429 860 464 826 b 586 904 553 826 586 860 b 507 983 586 949 553 983 z "},"ì":{"ha":375,"x_min":0,"x_max":0,"o":"m 129 0 l 246 0 l 246 700 l 129 700 z m 15 978 l 183 778 l 278 778 l 183 978 z "},"í":{"ha":375,"x_min":0,"x_max":0,"o":"m 129 0 l 246 0 l 246 700 l 129 700 z m 193 778 l 361 978 l 193 978 l 99 778 z "},"î":{"ha":375,"x_min":0,"x_max":0,"o":"m 129 0 l 246 0 l 246 700 l 129 700 z m 81 786 l 192 904 l 303 786 l 422 786 l 210 1014 l 174 1014 l -39 786 z "},"ï":{"ha":375,"x_min":0,"x_max":0,"o":"m 129 0 l 246 0 l 246 700 l 129 700 z m 72 983 b -6 904 29 983 -6 949 b 72 826 -6 860 29 826 b 151 904 118 826 151 860 b 72 983 151 949 118 983 z m 303 983 b 225 904 260 983 225 949 b 303 826 225 860 260 826 b 382 904 349 826 382 860 b 303 983 382 949 349 983 z "},"ð":{"ha":806,"x_min":0,"x_max":0,"o":"m 407 835 b 560 650 485 776 536 715 b 403 711 532 685 464 711 b 163 606 301 711 222 676 b 75 350 104 535 75 450 b 163 94 75 250 104 165 b 403 -11 222 24 301 -11 b 642 94 504 -11 583 24 b 731 350 701 165 731 250 b 464 919 731 601 654 776 l 511 990 l 431 1049 l 379 974 b 268 1028 347 992 310 1010 l 213 943 b 324 890 257 925 294 907 l 271 811 l 353 753 z m 611 350 b 557 169 611 279 593 219 b 403 94 522 119 471 94 b 247 169 335 94 283 119 b 194 350 213 219 194 279 b 247 531 194 421 213 481 b 403 606 283 581 335 606 b 556 532 468 606 519 581 b 611 350 593 483 611 422 z "},"ñ":{"ha":801,"x_min":0,"x_max":0,"o":"m 682 493 b 476 711 682 632 604 711 b 244 571 375 711 297 664 l 244 700 l 128 700 l 128 0 l 244 0 l 244 293 b 303 519 244 386 264 463 b 444 606 343 576 390 606 b 565 463 525 606 565 558 l 565 0 l 682 0 z m 226 814 b 318 864 253 847 283 864 b 400 836 339 864 367 854 b 500 808 433 818 467 808 b 649 913 560 808 615 851 l 581 967 b 489 917 554 933 524 917 b 407 944 468 917 440 926 b 307 972 374 963 340 972 b 158 867 247 972 192 929 z "},"ò":{"ha":822,"x_min":0,"x_max":0,"o":"m 167 94 b 411 -11 229 24 310 -11 b 654 94 513 -11 593 24 b 747 350 717 165 747 251 b 654 604 747 449 717 533 b 411 711 593 675 513 711 b 167 604 310 711 229 675 b 75 350 106 533 75 449 b 167 94 75 251 106 165 z m 251 529 b 411 606 290 581 343 606 b 569 529 479 606 532 581 b 628 350 608 479 628 419 b 569 169 628 281 608 221 b 411 94 532 119 479 94 b 251 169 343 94 290 119 b 194 350 214 221 194 281 b 251 529 194 419 214 479 z m 251 978 l 419 778 l 514 778 l 419 978 z "},"ó":{"ha":822,"x_min":0,"x_max":0,"o":"m 167 94 b 411 -11 229 24 310 -11 b 654 94 513 -11 593 24 b 747 350 717 165 747 251 b 654 604 747 449 717 533 b 411 711 593 675 513 711 b 167 604 310 711 229 675 b 75 350 106 533 75 449 b 167 94 75 251 106 165 z m 251 529 b 411 606 290 581 343 606 b 569 529 479 606 532 581 b 628 350 608 479 628 419 b 569 169 628 281 608 221 b 411 94 532 119 479 94 b 251 169 343 94 290 119 b 194 350 214 221 194 281 b 251 529 194 419 214 479 z m 401 778 l 569 978 l 401 978 l 307 778 z "},"ô":{"ha":822,"x_min":0,"x_max":0,"o":"m 167 94 b 411 -11 229 24 310 -11 b 654 94 513 -11 593 24 b 747 350 717 165 747 251 b 654 604 747 449 717 533 b 411 711 593 675 513 711 b 167 604 310 711 229 675 b 75 350 106 533 75 449 b 167 94 75 251 106 165 z m 251 529 b 411 606 290 581 343 606 b 569 529 479 606 532 581 b 628 350 608 479 628 419 b 569 169 628 281 608 221 b 411 94 532 119 479 94 b 251 169 343 94 290 119 b 194 350 214 221 194 281 b 251 529 194 419 214 479 z m 300 786 l 411 904 l 522 786 l 642 786 l 429 1014 l 393 1014 l 181 786 z "},"õ":{"ha":822,"x_min":0,"x_max":0,"o":"m 167 94 b 411 -11 229 24 310 -11 b 654 94 513 -11 593 24 b 747 350 717 165 747 251 b 654 604 747 449 717 533 b 411 711 593 675 513 711 b 167 604 310 711 229 675 b 75 350 106 533 75 449 b 167 94 75 251 106 165 z m 251 529 b 411 606 290 581 343 606 b 569 529 479 606 532 581 b 628 350 608 479 628 419 b 569 169 628 281 608 221 b 411 94 532 119 479 94 b 251 169 343 94 290 119 b 194 350 214 221 194 281 b 251 529 194 419 214 479 z m 235 814 b 326 864 261 847 292 864 b 408 836 347 864 375 854 b 508 808 442 818 475 808 b 657 913 568 808 624 851 l 589 967 b 497 917 563 933 532 917 b 415 944 476 917 449 926 b 315 972 382 963 349 972 b 167 867 256 972 200 929 z "},"ö":{"ha":822,"x_min":0,"x_max":0,"o":"m 167 94 b 411 -11 229 24 310 -11 b 654 94 513 -11 593 24 b 747 350 717 165 747 251 b 654 604 747 449 717 533 b 411 711 593 675 513 711 b 167 604 310 711 229 675 b 75 350 106 533 75 449 b 167 94 75 251 106 165 z m 251 529 b 411 606 290 581 343 606 b 569 529 479 606 532 581 b 628 350 608 479 628 419 b 569 169 628 281 608 221 b 411 94 532 119 479 94 b 251 169 343 94 290 119 b 194 350 214 221 194 281 b 251 529 194 419 214 479 z m 296 983 b 218 904 253 983 218 949 b 296 826 218 860 253 826 b 375 904 342 826 375 860 b 296 983 375 949 342 983 z m 526 983 b 449 904 483 983 449 949 b 526 826 449 860 483 826 b 606 904 572 826 606 860 b 526 983 606 949 572 983 z "},"÷":{"ha":744,"x_min":0,"x_max":0,"o":"m 285 178 b 372 90 285 128 322 90 b 460 178 421 90 460 128 b 372 265 460 226 421 265 b 285 178 322 265 285 226 z m 285 697 b 372 610 285 647 322 610 b 460 697 421 610 460 647 b 372 785 460 746 421 785 b 285 697 322 785 285 746 z m 678 389 l 678 492 l 67 492 l 67 389 z "},"ø":{"ha":822,"x_min":0,"x_max":0,"o":"m 589 661 b 411 711 538 694 479 711 b 167 604 310 711 229 675 b 75 350 106 533 75 449 b 157 108 75 257 103 176 l 72 0 l 156 -60 l 233 39 b 411 -11 285 6 343 -11 b 654 94 513 -11 593 24 b 747 350 717 165 747 251 b 665 592 747 443 719 524 l 750 700 l 667 760 z m 628 350 b 569 169 628 281 608 221 b 411 94 532 119 479 94 b 301 126 371 94 335 106 l 592 497 b 628 350 615 454 628 404 z m 194 350 b 251 529 194 419 214 479 b 411 606 290 581 343 606 b 521 574 451 606 488 594 l 231 203 b 194 350 207 246 194 296 z "},"ù":{"ha":801,"x_min":0,"x_max":0,"o":"m 119 207 b 325 -11 119 68 197 -11 b 557 129 426 -11 504 36 l 557 0 l 674 0 l 674 700 l 557 700 l 557 407 b 497 181 557 314 538 238 b 357 94 458 124 411 94 b 236 238 276 94 236 142 l 236 700 l 119 700 z m 231 978 l 399 778 l 493 778 l 399 978 z "},"ú":{"ha":801,"x_min":0,"x_max":0,"o":"m 119 207 b 325 -11 119 68 197 -11 b 557 129 426 -11 504 36 l 557 0 l 674 0 l 674 700 l 557 700 l 557 407 b 497 181 557 314 538 238 b 357 94 458 124 411 94 b 236 238 276 94 236 142 l 236 700 l 119 700 z m 390 778 l 558 978 l 390 978 l 296 778 z "},"û":{"ha":801,"x_min":0,"x_max":0,"o":"m 119 207 b 325 -11 119 68 197 -11 b 557 129 426 -11 504 36 l 557 0 l 674 0 l 674 700 l 557 700 l 557 407 b 497 181 557 314 538 238 b 357 94 458 124 411 94 b 236 238 276 94 236 142 l 236 700 l 119 700 z m 288 786 l 399 904 l 510 786 l 629 786 l 417 1014 l 381 1014 l 168 786 z "},"ü":{"ha":801,"x_min":0,"x_max":0,"o":"m 119 207 b 325 -11 119 68 197 -11 b 557 129 426 -11 504 36 l 557 0 l 674 0 l 674 700 l 557 700 l 557 407 b 497 181 557 314 538 238 b 357 94 458 124 411 94 b 236 238 276 94 236 142 l 236 700 l 119 700 z m 282 983 b 204 904 239 983 204 949 b 282 826 204 860 239 826 b 361 904 328 826 361 860 b 282 983 361 949 328 983 z m 513 983 b 435 904 469 983 435 949 b 513 826 435 860 469 826 b 592 904 558 826 592 860 b 513 983 592 949 558 983 z "},"ý":{"ha":639,"x_min":0,"x_max":0,"o":"m 326 194 l 149 700 l 21 700 l 267 29 l 156 -283 l 275 -283 l 622 700 l 500 700 z m 350 778 l 518 978 l 350 978 l 256 778 z "},"þ":{"ha":835,"x_min":0,"x_max":0,"o":"m 449 -11 b 760 350 649 -11 760 133 b 449 711 760 567 649 711 b 325 681 407 711 365 701 b 244 617 285 660 257 639 l 244 983 l 128 983 l 128 -283 l 244 -283 l 244 86 b 449 -11 279 32 365 -11 z m 438 606 b 640 350 560 606 640 501 b 438 94 640 199 560 94 b 235 350 311 94 235 199 b 438 606 235 501 311 606 z "},"ÿ":{"ha":639,"x_min":0,"x_max":0,"o":"m 326 194 l 149 700 l 21 700 l 267 29 l 156 -283 l 275 -283 l 622 700 l 500 700 z m 213 983 b 135 904 169 983 135 949 b 213 826 135 860 169 826 b 292 904 258 826 292 860 b 213 983 292 949 258 983 z m 443 983 b 365 904 400 983 365 949 b 443 826 365 860 400 826 b 522 904 489 826 522 860 b 443 983 522 949 489 983 z "},"ı":{"ha":375,"x_min":0,"x_max":0,"o":"m 129 0 l 246 0 l 246 700 l 129 700 z "},"Ł":{"ha":724,"x_min":0,"x_max":0,"o":"m 135 485 l -6 407 l 44 317 l 135 368 l 135 0 l 699 0 l 699 117 l 257 117 l 257 436 l 469 553 l 419 643 l 257 553 l 257 972 l 135 972 z "},"ł":{"ha":471,"x_min":0,"x_max":0,"o":"m 172 528 l 31 450 l 81 360 l 172 411 l 172 0 l 289 0 l 289 474 l 431 553 l 381 643 l 289 590 l 289 983 l 172 983 z "},"Œ":{"ha":1478,"x_min":0,"x_max":0,"o":"m 826 846 b 513 983 744 938 640 983 b 203 850 390 983 288 939 b 76 486 118 763 76 640 b 203 121 76 332 118 210 b 513 -11 288 33 390 -11 b 826 126 640 -11 744 35 l 826 0 l 1399 0 l 1399 117 l 949 117 l 949 460 l 1301 460 l 1301 576 l 949 576 l 949 856 l 1385 856 l 1385 972 l 826 972 z m 735 768 b 822 486 793 703 822 608 b 735 204 822 364 793 269 b 513 106 678 139 603 106 b 289 204 422 106 347 139 b 203 486 232 269 203 364 b 289 768 203 608 232 703 b 513 867 347 833 422 867 b 735 768 603 867 678 833 z "},"œ":{"ha":1331,"x_min":0,"x_max":0,"o":"m 1261 379 b 1176 614 1261 472 1233 550 b 944 711 1121 679 1043 711 b 683 567 828 711 740 663 b 411 711 619 663 529 711 b 167 604 310 711 229 675 b 75 350 106 533 75 449 b 167 94 75 251 106 165 b 411 -11 229 24 310 -11 b 683 133 529 -11 619 38 b 944 -11 742 38 829 -11 b 1242 183 1089 -11 1176 46 l 1139 228 b 944 94 1099 138 1043 94 b 747 325 824 94 754 188 l 1261 325 z m 411 94 b 251 169 343 94 290 119 b 194 350 214 221 194 281 b 251 529 194 419 214 479 b 411 606 290 581 343 606 b 568 529 476 606 529 581 b 628 350 608 478 628 418 b 568 171 628 282 608 222 b 411 94 529 119 476 94 z m 944 606 b 1139 431 1051 606 1121 535 l 754 431 b 944 606 776 538 840 606 z "},"Š":{"ha":726,"x_min":0,"x_max":0,"o":"m 611 828 b 358 983 560 928 488 983 b 190 913 293 983 238 960 b 119 736 143 865 119 807 b 192 565 119 664 142 610 b 356 465 242 522 279 500 b 539 276 472 410 539 361 b 501 161 539 231 526 192 b 369 106 469 124 426 106 b 161 315 254 106 199 183 l 56 251 b 165 63 72 175 108 111 b 369 -11 222 14 290 -11 b 586 81 458 -11 531 19 b 661 279 636 135 661 201 b 557 482 657 376 622 433 b 429 558 511 517 485 531 l 354 597 b 299 633 339 606 321 618 b 242 746 256 667 242 700 b 358 867 242 811 292 867 b 513 764 424 867 468 843 z m 383 1058 l 596 1286 l 476 1286 l 365 1168 l 254 1286 l 135 1286 l 347 1058 z "},"š":{"ha":640,"x_min":0,"x_max":0,"o":"m 328 711 b 122 518 204 711 122 629 b 331 306 122 385 239 340 b 444 204 393 283 444 250 b 332 94 444 131 407 94 b 169 232 261 94 207 140 l 71 178 b 332 -11 111 71 200 -11 b 564 211 475 -11 564 72 b 239 517 565 417 238 392 b 324 606 239 572 275 606 b 451 536 367 606 408 582 l 531 604 b 328 711 481 675 413 711 z m 344 786 l 557 1014 l 438 1014 l 326 896 l 215 1014 l 96 1014 l 308 786 z "},"Ÿ":{"ha":703,"x_min":0,"x_max":0,"o":"m 290 0 l 413 0 l 413 419 l 697 972 l 563 972 l 351 542 l 140 972 l 6 972 l 290 419 z m 236 1256 b 158 1176 193 1256 158 1221 b 236 1099 158 1132 193 1099 b 315 1176 282 1099 315 1132 b 236 1256 315 1221 282 1256 z m 467 1256 b 389 1176 424 1256 389 1221 b 467 1099 389 1132 424 1099 b 546 1176 513 1099 546 1132 b 467 1256 546 1221 513 1256 z "},"Ž":{"ha":771,"x_min":0,"x_max":0,"o":"m 515 856 l 63 58 l 63 0 l 703 0 l 703 117 l 236 117 l 689 914 l 689 972 l 79 972 l 79 856 z m 400 1058 l 613 1286 l 493 1286 l 382 1168 l 271 1286 l 151 1286 l 364 1058 z "},"ž":{"ha":633,"x_min":0,"x_max":0,"o":"m 400 594 l 69 50 l 69 0 l 569 0 l 569 106 l 225 106 l 557 650 l 557 700 l 88 700 l 88 594 z m 339 786 l 551 1014 l 432 1014 l 321 896 l 210 1014 l 90 1014 l 303 786 z "},"ƒ":{"ha":664,"x_min":0,"x_max":0,"o":"m 260 594 l 133 -57 b 0 -189 115 -147 76 -189 b -75 -169 -28 -189 -53 -182 l -118 -272 b -22 -294 -92 -287 -60 -294 b 250 -57 129 -294 219 -215 l 376 594 l 535 594 l 554 700 l 396 700 l 406 746 b 539 878 424 836 463 878 b 614 858 567 878 592 871 l 657 961 b 561 983 631 976 599 983 b 289 746 415 983 324 913 l 279 700 l 156 700 l 136 594 z "},"ˆ":{"ha":542,"x_min":0,"x_max":0,"o":"m 160 786 l 271 904 l 382 786 l 501 786 l 289 1014 l 253 1014 l 40 786 z "},"ˇ":{"ha":542,"x_min":0,"x_max":0,"o":"m 289 786 l 501 1014 l 382 1014 l 271 896 l 160 1014 l 40 1014 l 253 786 z "},"˘":{"ha":347,"x_min":0,"x_max":0,"o":"m 229 972 b 168 910 229 935 206 910 b 107 972 133 910 107 935 l 14 972 b 168 821 14 888 81 821 b 322 972 257 821 322 888 z "},"˙":{"ha":375,"x_min":0,"x_max":0,"o":"m 100 894 b 188 808 100 846 139 808 b 275 894 238 808 275 846 b 188 983 275 944 238 983 b 100 894 139 983 100 944 z "},"˚":{"ha":325,"x_min":0,"x_max":0,"o":"m 25 907 b 163 774 25 831 85 774 b 300 907 242 774 300 831 b 163 1046 300 985 242 1046 b 25 907 85 1046 25 985 z m 103 908 b 222 908 96 992 229 992 b 103 908 229 829 96 829 z "},"˛":{"ha":297,"x_min":0,"x_max":0,"o":"m 97 -83 b 14 -211 42 -124 14 -165 b 133 -326 14 -282 61 -326 b 283 -228 199 -326 238 -299 l 224 -179 b 147 -236 192 -222 176 -236 b 106 -194 119 -236 106 -222 b 183 -83 106 -167 132 -129 z "},"˜":{"ha":540,"x_min":0,"x_max":0,"o":"m 93 814 b 185 864 119 847 150 864 b 267 836 206 864 233 854 b 367 808 300 818 333 808 b 515 913 426 808 482 851 l 447 967 b 356 917 421 933 390 917 b 274 944 335 917 307 926 b 174 972 240 963 207 972 b 25 867 114 972 58 929 z "},"˝":{"ha":565,"x_min":0,"x_max":0,"o":"m 125 778 l 293 978 l 125 978 l 31 778 z m 376 778 l 544 978 l 376 978 l 282 778 z "},"∆":{"ha":928,"x_min":0,"x_max":0,"o":"m 851 0 l 851 28 l 518 972 l 410 972 l 76 28 l 76 0 z m 706 106 l 222 106 l 464 804 z "},"Ω":{"ha":947,"x_min":0,"x_max":0,"o":"m 410 0 l 410 32 l 372 114 b 294 339 346 168 321 243 b 256 611 268 435 256 526 b 474 878 256 776 336 878 b 692 611 611 878 692 776 b 675 439 692 557 686 500 b 638 283 664 379 651 326 b 590 151 625 240 608 196 b 554 65 572 108 561 79 l 538 32 l 538 0 l 843 0 l 843 106 l 664 106 l 701 176 b 776 374 726 224 751 289 b 814 611 801 458 814 538 b 722 879 814 721 783 811 b 474 983 663 949 579 983 b 224 879 368 983 285 949 b 133 611 164 811 133 721 b 175 367 133 538 147 456 b 242 183 203 278 225 217 l 283 106 l 104 106 l 104 0 z "},"π":{"ha":840,"x_min":0,"x_max":0,"o":"m 199 594 l 199 0 l 315 0 l 315 594 l 524 594 l 524 0 l 640 0 l 640 594 l 763 594 l 763 700 l 76 700 l 76 594 z "},"–":{"ha":779,"x_min":0,"x_max":0,"o":"m 681 389 l 681 492 l 99 492 l 99 389 z "},"—":{"ha":1054,"x_min":0,"x_max":0,"o":"m 956 389 l 956 492 l 99 492 l 99 389 z "},"‘":{"ha":415,"x_min":0,"x_max":0,"o":"m 81 983 l 257 699 l 346 699 l 250 983 z "},"’":{"ha":415,"x_min":0,"x_max":0,"o":"m 158 699 l 335 983 l 165 983 l 69 699 z "},"‚":{"ha":415,"x_min":0,"x_max":0,"o":"m 158 -19 l 335 265 l 165 265 l 69 -19 z "},"“":{"ha":657,"x_min":0,"x_max":0,"o":"m 322 983 l 499 699 l 588 699 l 492 983 z m 81 983 l 257 699 l 346 699 l 250 983 z "},"”":{"ha":657,"x_min":0,"x_max":0,"o":"m 158 699 l 335 983 l 165 983 l 69 699 z m 400 699 l 576 983 l 407 983 l 311 699 z "},"„":{"ha":657,"x_min":0,"x_max":0,"o":"m 158 -19 l 335 265 l 165 265 l 69 -19 z m 400 -19 l 576 265 l 407 265 l 311 -19 z "},"†":{"ha":639,"x_min":0,"x_max":0,"o":"m 264 589 l 264 -69 l 375 -69 l 375 589 l 556 589 l 556 700 l 375 700 l 375 1042 l 264 1042 l 264 700 l 83 700 l 83 589 z "},"‡":{"ha":639,"x_min":0,"x_max":0,"o":"m 264 589 l 264 383 l 83 383 l 83 272 l 264 272 l 264 -69 l 375 -69 l 375 272 l 556 272 l 556 383 l 375 383 l 375 589 l 556 589 l 556 700 l 375 700 l 375 1042 l 264 1042 l 264 700 l 83 700 l 83 589 z "},"•":{"ha":450,"x_min":0,"x_max":0,"o":"m 149 382 b 300 382 192 342 260 342 b 300 533 343 425 343 493 b 149 533 260 576 192 576 b 149 382 108 493 108 425 z "},"…":{"ha":1161,"x_min":0,"x_max":0,"o":"m 125 82 b 213 -6 125 32 163 -6 b 300 82 261 -6 300 32 b 213 169 300 131 261 169 b 125 82 163 169 125 131 z m 493 82 b 581 -6 493 32 531 -6 b 668 82 629 -6 668 32 b 581 169 668 131 629 169 b 493 82 531 169 493 131 z m 861 82 b 949 -6 861 32 899 -6 b 1036 82 997 -6 1036 32 b 949 169 1036 131 997 169 b 861 82 899 169 861 131 z "},"‰":{"ha":1697,"x_min":0,"x_max":0,"o":"m 144 604 b 303 540 188 561 240 540 b 461 604 365 540 418 561 b 525 761 504 647 525 699 b 461 918 525 824 504 875 b 303 983 418 961 365 983 b 144 918 240 983 188 961 b 81 761 101 875 81 824 b 144 604 81 699 101 647 z m 214 850 b 303 886 236 874 265 886 b 390 850 340 886 369 874 b 390 672 435 804 435 718 b 303 638 369 649 340 638 b 214 672 265 638 236 649 b 214 850 171 718 171 804 z m 708 53 b 867 -11 751 10 804 -11 b 1025 53 929 -11 982 10 b 1089 210 1068 96 1089 147 b 1025 367 1089 272 1068 324 b 867 432 982 410 929 432 b 708 367 804 432 751 410 b 644 210 665 324 644 272 b 708 53 644 147 665 96 z m 778 299 b 867 335 800 322 829 335 b 954 299 904 335 933 322 b 954 121 999 253 999 167 b 867 86 933 97 904 86 b 778 121 829 86 800 97 b 778 299 735 167 735 253 z m 1236 53 b 1394 -11 1279 10 1332 -11 b 1553 53 1457 -11 1510 10 b 1617 210 1596 96 1617 147 b 1553 367 1617 272 1596 324 b 1394 432 1510 410 1457 432 b 1236 367 1332 432 1279 410 b 1172 210 1193 324 1172 272 b 1236 53 1172 147 1193 96 z m 1306 299 b 1394 335 1328 322 1357 335 b 1482 299 1432 335 1461 322 b 1482 121 1526 253 1526 167 b 1394 86 1461 97 1432 86 b 1306 121 1357 86 1328 97 b 1306 299 1263 167 1263 253 z m 176 15 l 246 -40 l 993 958 l 924 1013 z "},"‹":{"ha":529,"x_min":0,"x_max":0,"o":"m 451 111 l 451 236 l 181 431 l 451 625 l 451 750 l 67 474 l 67 388 z "},"›":{"ha":529,"x_min":0,"x_max":0,"o":"m 78 750 l 78 625 l 349 431 l 78 236 l 78 111 l 463 388 l 463 474 z "},"⁄":{"ha":844,"x_min":0,"x_max":0,"o":"m 14 15 l 83 -40 l 831 958 l 761 1013 z "},"⁰":{"ha":547,"x_min":0,"x_max":0,"o":"m 119 901 b 64 694 82 851 64 782 b 119 486 64 607 82 538 b 274 411 157 436 208 411 b 428 486 339 411 390 436 b 483 694 465 538 483 607 b 428 901 483 782 465 851 b 274 978 390 953 339 978 b 119 901 208 978 157 953 z m 358 843 b 392 694 381 808 392 760 b 358 546 392 629 381 581 b 274 494 338 511 308 494 b 188 546 239 494 210 511 b 156 694 167 581 156 629 b 188 843 156 760 167 808 b 274 894 210 878 239 894 b 358 843 308 894 338 878 z "},"⁴":{"ha":472,"x_min":0,"x_max":0,"o":"m 368 417 l 368 524 l 433 524 l 433 607 l 368 607 l 368 972 l 268 972 l 44 560 l 44 524 l 281 524 l 281 417 z m 281 843 l 281 607 l 158 607 z "},"⁵":{"ha":472,"x_min":0,"x_max":0,"o":"m 67 565 b 244 411 78 471 150 411 b 432 599 356 411 432 486 b 261 785 432 711 367 785 b 167 753 226 785 196 774 l 185 889 l 397 889 l 397 972 l 108 972 l 78 671 l 147 656 b 244 707 172 690 204 707 b 340 599 306 707 340 664 b 244 494 340 536 306 494 b 153 579 194 494 164 528 z "},"⁶":{"ha":510,"x_min":0,"x_max":0,"o":"m 276 776 b 235 767 258 776 244 774 l 356 978 l 258 978 l 101 704 b 72 593 82 669 72 633 b 260 411 72 488 149 411 b 444 593 369 411 444 488 b 276 776 444 703 382 776 z m 164 593 b 260 693 164 654 204 693 b 353 593 315 693 353 654 b 260 494 353 536 314 494 b 164 593 204 494 164 536 z "},"⁷":{"ha":422,"x_min":0,"x_max":0,"o":"m 397 938 l 397 972 l 64 972 l 64 889 l 285 889 l 92 417 l 183 417 z "},"⁸":{"ha":492,"x_min":0,"x_max":0,"o":"m 407 829 b 246 978 407 914 342 978 b 85 829 150 978 85 914 b 150 717 85 785 113 739 b 67 583 94 689 67 644 b 246 411 67 478 140 411 b 425 583 351 411 425 478 b 342 717 425 644 397 689 b 407 829 379 739 407 785 z m 310 647 b 310 519 342 614 342 553 b 182 519 278 486 214 486 b 182 647 150 553 150 614 b 310 647 214 681 278 681 z m 301 883 b 301 774 331 856 331 803 b 189 774 274 746 218 746 b 189 883 161 803 161 856 b 301 883 218 913 274 913 z "},"⁹":{"ha":510,"x_min":0,"x_max":0,"o":"m 233 613 b 275 622 251 613 265 615 l 154 411 l 251 411 l 408 685 b 438 796 428 719 438 756 b 250 978 438 901 361 978 b 65 796 140 978 65 901 b 233 613 65 686 128 613 z m 346 796 b 250 696 346 735 306 696 b 157 796 194 696 157 735 b 250 894 157 853 196 894 b 346 796 306 894 346 853 z "},"€":{"ha":872,"x_min":0,"x_max":0,"o":"m 169 538 l 169 435 l 100 435 l 44 324 l 179 324 b 540 -11 217 111 347 -11 b 814 147 667 -11 757 42 l 715 201 b 540 100 674 133 615 100 b 296 324 406 100 325 175 l 569 324 l 625 435 l 286 435 l 286 538 l 569 538 l 625 649 l 296 649 b 540 872 325 797 406 872 b 715 771 615 872 674 839 l 814 825 b 540 983 757 931 667 983 b 179 649 347 983 217 861 l 100 649 l 44 538 z "},"™":{"ha":1142,"x_min":0,"x_max":0,"o":"m 185 889 l 185 417 l 283 417 l 283 889 l 429 889 l 429 972 l 39 972 l 39 889 z m 531 417 l 629 417 l 629 768 l 750 468 l 808 468 l 929 768 l 929 417 l 1028 417 l 1028 972 l 925 972 l 779 607 l 633 972 l 531 972 z "},"∂":{"ha":835,"x_min":0,"x_max":0,"o":"m 67 293 b 146 74 67 203 93 131 b 353 -11 199 17 268 -11 b 749 496 635 -11 749 250 b 429 983 749 803 646 983 b 147 790 296 983 193 908 l 261 761 b 425 878 296 839 350 878 b 628 642 535 878 613 790 b 460 711 590 688 533 711 b 176 590 344 711 250 671 b 67 293 103 510 67 411 z m 449 606 b 619 411 560 606 619 532 b 549 186 619 324 596 249 b 360 94 501 125 439 94 b 186 290 253 94 186 174 b 258 508 186 372 210 444 b 449 606 307 574 371 606 z "},"∏":{"ha":767,"x_min":0,"x_max":0,"o":"m 244 0 l 244 867 l 522 867 l 522 0 l 639 0 l 639 972 l 128 972 l 128 0 z "},"∑":{"ha":764,"x_min":0,"x_max":0,"o":"m 674 867 l 674 972 l 81 972 l 81 944 l 375 486 l 81 28 l 81 0 l 674 0 l 674 106 l 257 106 l 492 472 l 492 500 l 257 867 z "},"−":{"ha":792,"x_min":0,"x_max":0,"o":"m 704 389 l 704 492 l 93 492 l 93 389 z "},"√":{"ha":794,"x_min":0,"x_max":0,"o":"m 413 183 l 293 540 l 81 540 l 81 435 l 225 435 l 367 0 l 458 0 l 760 983 l 649 983 z "},"∞":{"ha":1222,"x_min":0,"x_max":0,"o":"m 886 233 b 1142 499 1046 233 1142 339 b 886 764 1142 658 1046 764 b 611 610 790 764 683 710 b 336 764 539 710 432 764 b 81 499 176 764 81 658 b 336 233 81 339 176 233 b 611 388 432 233 539 288 b 886 233 683 288 790 233 z m 357 339 b 200 499 261 339 200 399 b 357 658 200 599 261 658 b 553 499 422 658 503 600 b 357 339 503 397 422 339 z m 865 339 b 669 499 800 339 719 397 b 865 658 719 600 800 658 b 1022 499 961 658 1022 599 b 865 339 1022 399 961 339 z "},"∫":{"ha":664,"x_min":0,"x_max":0,"o":"m 133 -57 b 0 -189 115 -147 76 -189 b -75 -169 -28 -189 -53 -182 l -118 -272 b -22 -294 -92 -287 -60 -294 b 250 -57 129 -294 219 -215 l 406 746 b 539 878 424 836 463 878 b 614 858 567 878 592 871 l 657 961 b 561 983 631 976 599 983 b 289 746 410 983 319 904 z "},"≈":{"ha":839,"x_min":0,"x_max":0,"o":"m 163 233 b 292 296 197 275 240 296 b 419 261 324 296 367 285 b 561 226 474 238 521 226 b 744 349 638 226 704 272 l 676 419 b 547 357 642 378 599 357 b 419 392 515 357 474 368 b 278 426 365 415 318 426 b 94 303 204 426 135 379 z m 163 511 b 292 574 197 553 240 574 b 419 539 324 574 367 563 b 561 504 474 515 521 504 b 744 626 638 504 704 550 l 676 697 b 547 635 642 656 599 635 b 419 669 515 635 474 646 b 278 704 365 693 318 704 b 94 581 204 704 135 657 z "},"≠":{"ha":776,"x_min":0,"x_max":0,"o":"m 365 494 l 294 367 l 111 367 l 111 264 l 233 264 l 182 174 l 271 122 l 353 264 l 665 264 l 665 367 l 411 367 l 482 494 l 665 494 l 665 597 l 543 597 l 594 688 l 506 739 l 424 597 l 111 597 l 111 494 z "},"≤":{"ha":774,"x_min":0,"x_max":0,"o":"m 688 0 l 688 103 l 76 103 l 76 0 z m 625 240 l 625 360 l 254 558 l 625 757 l 625 876 l 140 619 l 140 497 z "},"≥":{"ha":774,"x_min":0,"x_max":0,"o":"m 86 103 l 86 0 l 697 0 l 697 103 z m 149 876 l 149 757 l 519 558 l 149 360 l 149 240 l 633 497 l 633 619 z "},"◊":{"ha":803,"x_min":0,"x_max":0,"o":"m 458 0 l 708 486 l 458 972 l 344 972 l 94 486 l 344 0 z m 211 486 l 401 864 l 592 486 l 401 108 z "},"ﬁ":{"ha":756,"x_min":0,"x_max":0,"o":"m 165 594 l 165 0 l 282 0 l 282 594 l 522 594 l 522 0 l 639 0 l 639 700 l 282 700 l 282 724 b 435 878 282 825 339 878 b 590 838 494 878 546 864 l 615 938 b 436 983 572 968 513 983 b 243 915 360 983 294 961 b 165 722 192 869 165 806 l 165 700 l 65 700 l 65 594 z "},"ﬂ":{"ha":818,"x_min":0,"x_max":0,"o":"m 165 594 l 165 0 l 282 0 l 282 594 l 443 594 l 443 700 l 282 700 l 282 738 b 421 878 282 828 338 878 l 585 878 l 585 0 l 701 0 l 701 983 l 422 983 b 238 919 349 983 286 963 b 165 736 189 878 165 817 l 165 700 l 65 700 l 65 594 z "},"\r":{"ha":372,"x_min":0,"x_max":0,"o":""},"":{"ha":1092,"x_min":0,"x_max":0,"o":"m 957 857 b 935 888 957 872 950 883 l 560 996 b 532 996 549 1000 543 1000 l 157 888 b 135 857 142 883 135 872 l 135 31 b 165 0 135 14 149 0 b 175 1 168 0 171 0 l 546 108 l 917 1 b 926 0 921 0 924 0 b 957 31 943 0 957 14 z m 515 508 b 294 613 429 515 356 550 b 196 836 235 675 201 749 l 515 929 z m 896 836 b 796 613 890 749 857 675 b 576 508 736 550 663 515 l 576 929 z m 194 643 b 515 447 261 532 381 458 l 515 164 l 194 71 z m 576 164 l 576 447 b 897 643 711 458 829 532 l 897 71 z "}}}
